<svg class="animated" id="freepik_stories-instruction-manual" xmlns="http://www.w3.org/2000/svg" viewBox="0 0 500 500" version="1.1" xmlns:xlink="http://www.w3.org/1999/xlink" xmlns:svgjs="http://svgjs.com/svgjs"><style>svg#freepik_stories-instruction-manual:not(.animated) .animable {opacity: 0;}svg#freepik_stories-instruction-manual.animated #freepik--background-complete--inject-229 {animation: 1s 1 forwards cubic-bezier(.36,-0.01,.5,1.38) slideLeft;animation-delay: 0s;}svg#freepik_stories-instruction-manual.animated #freepik--Floor--inject-229 {animation: 1s 1 forwards cubic-bezier(.36,-0.01,.5,1.38) slideUp;animation-delay: 0s;}svg#freepik_stories-instruction-manual.animated #freepik--Manual--inject-229 {animation: 1s 1 forwards cubic-bezier(.36,-0.01,.5,1.38) zoomIn;animation-delay: 0s;}svg#freepik_stories-instruction-manual.animated #freepik--Character--inject-229 {animation: 1s 1 forwards cubic-bezier(.36,-0.01,.5,1.38) lightSpeedLeft;animation-delay: 0s;}svg#freepik_stories-instruction-manual.animated #freepik--Plant--inject-229 {animation: 1s 1 forwards cubic-bezier(.36,-0.01,.5,1.38) slideRight;animation-delay: 0s;}            @keyframes slideLeft {                0% {                    opacity: 0;                    transform: translateX(-30px);                }                100% {                    opacity: 1;                    transform: translateX(0);                }            }                    @keyframes slideUp {                0% {                    opacity: 0;                    transform: translateY(30px);                }                100% {                    opacity: 1;                    transform: inherit;                }            }                    @keyframes zoomIn {                0% {                    opacity: 0;                    transform: scale(0.5);                }                100% {                    opacity: 1;                    transform: scale(1);                }            }                    @keyframes lightSpeedLeft {              from {                transform: translate3d(-50%, 0, 0) skewX(20deg);                opacity: 0;              }              60% {                transform: skewX(-10deg);                opacity: 1;              }              80% {                transform: skewX(2deg);              }              to {                opacity: 1;                transform: translate3d(0, 0, 0);              }            }                    @keyframes slideRight {                0% {                    opacity: 0;                    transform: translateX(30px);                }                100% {                    opacity: 1;                    transform: translateX(0);                }            }        </style><g id="freepik--background-complete--inject-229" style="transform-origin: 250.025px 246.865px 0px;" class="animable"><rect x="403.37" y="156.63" width="77.56" height="80.85" style="fill: rgb(224, 224, 224); transform-origin: 442.15px 197.055px 0px;" id="ele5m8i0i45p8" class="animable"></rect><rect x="398.12" y="156.63" width="77.56" height="80.85" style="fill: rgb(250, 250, 250); transform-origin: 436.9px 197.055px 0px;" id="ellr85lgmkh6" class="animable"></rect><path d="M475.7,237.5H398.1V156.61h77.6Zm-77.56-.05h77.51v-80.8H398.14Z" style="fill: rgb(224, 224, 224); transform-origin: 436.9px 197.055px 0px;" id="el3yq8fsnuwgj" class="animable"></path><rect x="408.55" y="167.5" width="56.71" height="59.11" style="fill: rgb(250, 250, 250); transform-origin: 436.905px 197.055px 0px;" id="el63z76gt05mk" class="animable"></rect><path d="M408.55,227a10.19,10.19,0,0,1-1.4,1.63c-.91,1-2.18,2.25-3.61,3.65s-2.74,2.66-3.7,3.55a8.79,8.79,0,0,1-1.64,1.36,9.36,9.36,0,0,1,1.39-1.62c.91-.95,2.18-2.25,3.61-3.66s2.75-2.66,3.71-3.55A8.79,8.79,0,0,1,408.55,227Z" style="fill: rgb(224, 224, 224); transform-origin: 403.375px 232.095px 0px;" id="el3l4b64u3qkf" class="animable"></path><path d="M465.25,226.86a8.63,8.63,0,0,1,1.63,1.4c1,.9,2.25,2.17,3.65,3.6s2.66,2.74,3.55,3.7a8.79,8.79,0,0,1,1.36,1.64,9.23,9.23,0,0,1-1.62-1.39c-.95-.9-2.25-2.18-3.66-3.61s-2.66-2.75-3.55-3.71A9.38,9.38,0,0,1,465.25,226.86Z" style="fill: rgb(224, 224, 224); transform-origin: 470.345px 232.03px 0px;" id="elu1txtveixy" class="animable"></path><path d="M465.1,167.66a8.28,8.28,0,0,1,1.4-1.63c.9-1,2.17-2.25,3.6-3.66s2.74-2.65,3.71-3.54a9.36,9.36,0,0,1,1.63-1.37,8.45,8.45,0,0,1-1.39,1.62c-.9,1-2.18,2.25-3.61,3.66s-2.74,2.67-3.71,3.56A9.38,9.38,0,0,1,465.1,167.66Z" style="fill: rgb(224, 224, 224); transform-origin: 470.27px 162.56px 0px;" id="elmolyyn3jhuf" class="animable"></path><path d="M408.39,167.8a9.57,9.57,0,0,1-1.63-1.4c-.95-.9-2.24-2.18-3.65-3.6s-2.66-2.74-3.55-3.71a9.33,9.33,0,0,1-1.36-1.64,9.36,9.36,0,0,1,1.62,1.39c.95.91,2.25,2.19,3.66,3.62s2.66,2.74,3.55,3.71A9.38,9.38,0,0,1,408.39,167.8Z" style="fill: rgb(224, 224, 224); transform-origin: 403.295px 162.625px 0px;" id="el7j4rziyxc36" class="animable"></path><path d="M465.1,226.61a1.36,1.36,0,0,1,0-.29c0-.2,0-.47,0-.82,0-.74,0-1.81,0-3.19,0-2.8,0-6.88-.06-12.05,0-10.35-.07-25.1-.11-42.76l.22.22-56.55,0h0l.25-.25c0,21.69,0,42,0,59.11l-.21-.22,40.94.11,11.5.06,3.05,0,.78,0h-.74l-3,0-11.45.05-41.08.11h-.22v-.21c0-17.12,0-37.42,0-59.11v-.25h.26l56.55,0h.22v.22c-.05,17.71-.09,32.51-.12,42.9,0,5.15,0,9.21-.05,12,0,1.36,0,2.41,0,3.14,0,.35,0,.61,0,.81S465.1,226.61,465.1,226.61Z" style="fill: rgb(224, 224, 224); transform-origin: 436.935px 196.905px 0px;" id="el2hlcl4h7at3" class="animable"></path><rect x="427.44" y="187.59" width="18.92" height="18.92" style="fill: rgb(235, 235, 235); transform-origin: 436.9px 197.05px 0px;" id="el8vxar8oc945" class="animable"></rect><g id="eljlk7y12bnfr"><rect x="152.57" y="41.69" width="257.59" height="378.18" style="fill: rgb(224, 224, 224); transform-origin: 281.365px 230.78px 0px; transform: rotate(-1.6deg);" class="animable" id="el6i83pyb7tnq"></rect></g><g id="ellxpwnjouv4k"><rect x="122.61" y="42.31" width="257.59" height="378.18" style="fill: rgb(245, 245, 245); transform-origin: 251.405px 231.4px 0px; transform: rotate(3.14deg);" class="animable" id="elstdi5kk8tss"></rect></g><g id="elsdbzr2zqbk"><rect x="162.17" y="62.42" width="257.59" height="378.18" style="fill: rgb(235, 235, 235); transform-origin: 290.965px 251.51px 0px; transform: rotate(4.87deg);" class="animable" id="eld4uf2f3pxtf"></rect></g><path d="M42.13,373.58a30.26,30.26,0,0,0-12.91-4.45c-2.11-.21-4.42-.15-6.11,1.13a1.25,1.25,0,0,0-.63,1.11,1.32,1.32,0,0,0,.6.76,18.46,18.46,0,0,0,19.05,1.45" style="fill: rgb(224, 224, 224); transform-origin: 32.3049px 372.301px 0px;" id="elo3ajbt7z7z" class="animable"></path><path d="M41.8,373.21a62.07,62.07,0,0,1-8.34-7.34,21,21,0,0,1-5.23-9.67,3.85,3.85,0,0,1,.41-3.23c6.65,5.19,11.87,11.91,13.16,20.24" style="fill: rgb(224, 224, 224); transform-origin: 34.923px 363.09px 0px;" id="elymi0jhnex8" class="animable"></path><path d="M42.06,373.53a30.29,30.29,0,0,1,.15-10.95,14.8,14.8,0,0,1,5.84-9c1.15,2.69.65,5.78-.16,8.59a41.76,41.76,0,0,1-5.78,12.17" style="fill: rgb(224, 224, 224); transform-origin: 45.1791px 363.96px 0px;" id="elgecrhv3dtov" class="animable"></path><path d="M48.58,385.21a19.06,19.06,0,0,0-10.36,5.24,19.59,19.59,0,0,0-5.92,10.17c3.88-.24,7.17-3,9.56-6.05s4-6.43,6.66-9.3" style="fill: rgb(224, 224, 224); transform-origin: 40.44px 392.915px 0px;" id="elz81d7cfllj" class="animable"></path><path d="M50,387.07a25.56,25.56,0,0,1,2.95-24.16c2.26,8,1.43,17.08-2.95,24.16" style="fill: rgb(224, 224, 224); transform-origin: 51.1971px 374.99px 0px;" id="els4gp83uc63" class="animable"></path><path d="M58.6,397.33a18.51,18.51,0,0,0-17.66,10.16c-.21.44-.41,1-.11,1.39a1.29,1.29,0,0,0,1.17.34c3.48-.22,6.56-2.32,9.11-4.7s4.76-5.14,7.57-7.2" style="fill: rgb(224, 224, 224); transform-origin: 49.6788px 403.272px 0px;" id="elx11l0hhhys" class="animable"></path><path d="M58.33,396.77A32.89,32.89,0,0,1,58,378.4c.65-2.37,1.74-4.86,3.92-6a.77.77,0,0,1,.6-.1.76.76,0,0,1,.38.44,11,11,0,0,1,.93,5.27,33.19,33.19,0,0,1-.83,5.33c-.69,3.27-1.06,6.77-2.84,9.58A18.64,18.64,0,0,0,59,395.06c-.34.71-.34,1-.65,1.53" style="fill: rgb(224, 224, 224); transform-origin: 60.3543px 384.524px 0px;" id="el1bguwgswrwu" class="animable"></path><path d="M81.12,400.17a23.71,23.71,0,0,1,4.16-19.48c.29-.39.69-.81,1.18-.76.74.07.94,1.06.9,1.81a35.18,35.18,0,0,1-6.24,18.43" style="fill: rgb(224, 224, 224); transform-origin: 83.9485px 390.048px 0px;" id="elcj6lwi8ij5" class="animable"></path><path d="M83.18,401.57a28.32,28.32,0,0,0,23.25-4.73,18.84,18.84,0,0,0-12.59-1.54c-4.2,1-8,2.84-10.66,6.27" style="fill: rgb(224, 224, 224); transform-origin: 94.805px 398.583px 0px;" id="elzndvmbrzv88" class="animable"></path><path d="M84.91,397.29c4.37-7.12,12.75-11.77,21.1-12.2-1,3.4-3.75,6-6.9,7.63a38,38,0,0,1-10.13,3c-1.34.27-3.19.55-4.07,1.61" style="fill: rgb(224, 224, 224); transform-origin: 95.46px 391.21px 0px;" id="elovs7ebvr4gd" class="animable"></path><path d="M81.56,376.54a62,62,0,0,0,2.7-12.36A20.64,20.64,0,0,0,81.8,352c-4.09,7.9-4.5,17.13-.36,25" style="fill: rgb(224, 224, 224); transform-origin: 81.452px 364.5px 0px;" id="elwextjkawk4k" class="animable"></path><path d="M95.31,369.59c4.77-8.68,14.51-15.61,24.37-16.58-3.8,9.47-14.17,16.78-24.37,16.58" style="fill: rgb(224, 224, 224); transform-origin: 107.495px 361.302px 0px;" id="el8y199r93666" class="animable"></path><path d="M92.3,371.29c7.12,1.09,13.19,5.63,19.84,8.39a8.91,8.91,0,0,0,4.49.86,3.51,3.51,0,0,0,2.2-6.21,9.55,9.55,0,0,0-3.26-2c-7.25-3-15-3.09-22.66-1.26" style="fill: rgb(224, 224, 224); transform-origin: 106.199px 375.208px 0px;" id="eld7l5dnpkods" class="animable"></path><path d="M88.18,376.29c1.61.46,2.16,1.29,3.44,2.38a37.08,37.08,0,0,0,15,7.73c.57.14,1.33.2,1.61-.32s-.07-1-.39-1.41a20.79,20.79,0,0,0-9.08-6.17c-3.48-1.29-6.48-2.85-10.63-2.51" style="fill: rgb(224, 224, 224); transform-origin: 98.2311px 381.22px 0px;" id="eltu6v2fr4fmg" class="animable"></path><path d="M83.53,346.12a28.47,28.47,0,0,0,21.83,7.43,1.53,1.53,0,0,0,1-.36c.55-.6-.11-1.52-.75-2-6.42-5-14.2-7.08-22.08-5.05" style="fill: rgb(224, 224, 224); transform-origin: 95.0476px 349.516px 0px;" id="elgwpx1ne1qkj" class="animable"></path><path d="M89,344.1a30.42,30.42,0,0,1,27.25-4.49,21.64,21.64,0,0,1-13,5.7A41.11,41.11,0,0,1,89,344.1" style="fill: rgb(224, 224, 224); transform-origin: 102.625px 341.828px 0px;" id="el8gqxt0zmg5l" class="animable"></path><path d="M86.85,330.24c-.63-6.41-.22-11.46-.66-17.9,0-.51-.15-1.13-.63-1.32-.67-.26-1.23.57-1.45,1.25a20.54,20.54,0,0,0,2.73,17.83" style="fill: rgb(224, 224, 224); transform-origin: 85.0132px 320.606px 0px;" id="elxwx5gmsjkdk" class="animable"></path><path d="M86.39,331A37.63,37.63,0,0,0,97,320.63c2.1-2.86,3.87-6.3,3.39-9.82a10.13,10.13,0,0,0-7.65,3.8,21.3,21.3,0,0,0-3.91,7.85c-.85,2.82-1.44,5.72-2.44,8.49" style="fill: rgb(224, 224, 224); transform-origin: 93.4297px 320.905px 0px;" id="elxxoqnmhmohs" class="animable"></path><path d="M96.82,328.05a85.41,85.41,0,0,0,26.12-15.4c-3.12-1.25-6.7-.5-9.81.76A30.93,30.93,0,0,0,96.68,328" style="fill: rgb(224, 224, 224); transform-origin: 109.81px 320.029px 0px;" id="el0utrde52qx1" class="animable"></path><path d="M89.32,334.45a53,53,0,0,0,14.51.07c4.7-.78,9.14-2.64,13.53-4.49a1.61,1.61,0,0,0,.92-.7,1,1,0,0,0-.33-1.16,2.66,2.66,0,0,0-1.15-.54c-4.78-1.34-9.93-.71-14.63.87a68.69,68.69,0,0,0-12.85,5.95" style="fill: rgb(224, 224, 224); transform-origin: 103.834px 330.942px 0px;" id="elq9lppcup2lc" class="animable"></path><path d="M61.79,346.34c-3.29-6.64-3.07-14.39-.23-21.23,2,3.05,2.24,6.93,1.88,10.55S62,343,61.9,346.67" style="fill: rgb(224, 224, 224); transform-origin: 61.4779px 335.89px 0px;" id="el9b20dq0kh9l" class="animable"></path><path d="M48.65,339.71a29.57,29.57,0,0,0-22,9.38,20.61,20.61,0,0,0,12.05-2.24A60.75,60.75,0,0,0,49,339.94" style="fill: rgb(224, 224, 224); transform-origin: 37.825px 344.471px 0px;" id="el3pz8wns0a8u" class="animable"></path><path d="M39.82,336.76c-4-.33-7.89-.83-11.75.36a14.07,14.07,0,0,0-8.95,7.59,21.25,21.25,0,0,0,11-2.08,63,63,0,0,0,9.69-5.87" style="fill: rgb(224, 224, 224); transform-origin: 29.47px 340.573px 0px;" id="elkn876m7mgdp" class="animable"></path><path d="M52.9,336.89c-3.62-2.37-7.33-4.78-11.54-5.76s-9.08-.25-12,2.92c3.4,2,7.53,2.23,11.48,2.23s8.8,0,12.52,1.27" style="fill: rgb(224, 224, 224); transform-origin: 41.36px 334.137px 0px;" id="el1bpmuzbzmqp" class="animable"></path><path d="M52.92,337.08c-6.18-6.06-8.52-17-6-25.26a38.5,38.5,0,0,1,6,25.26" style="fill: rgb(224, 224, 224); transform-origin: 49.5386px 324.45px 0px;" id="eliw2n42mcpym" class="animable"></path><path d="M69.91,319.89c1.17-2.71,2-5.55,3-8.31a24,24,0,0,1,4.32-7.66,11.41,11.41,0,0,1,7.66-4,30.82,30.82,0,0,1-14.86,20" style="fill: rgb(224, 224, 224); transform-origin: 77.4px 309.92px 0px;" id="ely94lpxnbhdd" class="animable"></path><path d="M66.84,323.47c-1.93-2.65-4.16-6.25-6.77-8.23s-6-3.19-9.22-2.42a21.45,21.45,0,0,0,16,10.65" style="fill: rgb(224, 224, 224); transform-origin: 58.85px 318.028px 0px;" id="elk28n5zb47l" class="animable"></path><path d="M67.45,320.11a46,46,0,0,1-3-9.87,15.39,15.39,0,0,1,1.55-10c3.39,6.41,4.48,13.3,1.67,20" style="fill: rgb(224, 224, 224); transform-origin: 66.7355px 310.24px 0px;" id="elhtw65s3icy" class="animable"></path><path d="M69.94,300.2c1.92-6.35,7.74-11,14-13.18a5.21,5.21,0,0,1,2.46-.37,2.16,2.16,0,0,1,1.81,1.51c.23,1.09-.67,2-1.51,2.77a47.56,47.56,0,0,1-16.79,9.27" style="fill: rgb(224, 224, 224); transform-origin: 79.0782px 293.414px 0px;" id="elpaa8oion778" class="animable"></path><path d="M70,295c.25-4.1.5-8.26,1.83-12.14s3.91-7.53,7.64-9.23c.64,4.14-1.19,8.26-3.39,11.82s-4.86,6.92-6.18,10.9" style="fill: rgb(224, 224, 224); transform-origin: 74.7497px 284.99px 0px;" id="elv6sg43vp5q" class="animable"></path><path d="M69.91,297.83c-1.59-4.64-1.75-10.52-4.52-14.56-1.94-2.82-5-4.74-6.72-7.73a11.77,11.77,0,0,0,.39,8.78,25.56,25.56,0,0,0,5.13,7.35c2.06,2.19,3.81,3.84,5.72,6.16" style="fill: rgb(224, 224, 224); transform-origin: 63.9566px 286.685px 0px;" id="elgkgbmu38dnn" class="animable"></path><path d="M69.94,434.24c-.12,0-.23-30.9-.24-69s.09-69,.21-69,.23,30.9.24,69S70.07,434.24,69.94,434.24Z" style="fill: rgb(224, 224, 224); transform-origin: 69.925px 365.24px 0px;" id="el3l3wih1z0xt" class="animable"></path><path d="M97,341.68a7.22,7.22,0,0,1-1.17.43l-3.19,1.08c-2.7.92-6.4,2.25-10.42,3.9s-7.74,3.09-9.87,4.94a7.42,7.42,0,0,0-2,2.63c-.3.72-.36,1.17-.4,1.16a1.17,1.17,0,0,1,0-.33,5.37,5.37,0,0,1,.23-.9,6.93,6.93,0,0,1,1.94-2.79,17.27,17.27,0,0,1,4.28-2.66c1.71-.8,3.61-1.64,5.63-2.47,4-1.65,7.76-2.94,10.49-3.78,1.36-.42,2.47-.74,3.24-.94A5.9,5.9,0,0,1,97,341.68Z" style="fill: rgb(224, 224, 224); transform-origin: 83.4692px 348.75px 0px;" id="elo0e7eucy41" class="animable"></path><path d="M105.8,319.93s-.1.14-.33.35l-1,.93-3.7,3.37-12.32,11c-4.81,4.28-9,8.37-11.85,11.45-1.44,1.54-2.58,2.81-3.35,3.7l-.9,1a1.87,1.87,0,0,1-.33.34,2.24,2.24,0,0,1,.26-.39c.19-.25.46-.62.84-1.08.73-.93,1.83-2.24,3.25-3.81a156.82,156.82,0,0,1,11.78-11.57c4.83-4.27,9.22-8.1,12.41-10.87l3.8-3.26,1-.86A2,2,0,0,1,105.8,319.93Z" style="fill: rgb(224, 224, 224); transform-origin: 88.91px 336px 0px;" id="elhpy8simssfn" class="animable"></path><path d="M83.27,339.9c-.13-.06.87-2.38,1.88-5.31s1.48-5.41,1.61-5.39a18.07,18.07,0,0,1-1.19,5.53,34.55,34.55,0,0,1-1.5,3.72A6.45,6.45,0,0,1,83.27,339.9Z" style="fill: rgb(224, 224, 224); transform-origin: 85.0093px 334.55px 0px;" id="elcl0h2sidhk" class="animable"></path><path d="M70,358.6a5.62,5.62,0,0,1-.74-.86l-1.9-2.43c-1.59-2.06-3.8-4.91-6.27-8s-4.74-5.91-6.39-7.93L52.73,337a6,6,0,0,1-.67-.92,5.84,5.84,0,0,1,.8.8c.5.54,1.2,1.33,2,2.32,1.71,2,4,4.73,6.5,7.85s4.64,6,6.17,8.11c.77,1.05,1.38,1.92,1.79,2.52A5.42,5.42,0,0,1,70,358.6Z" style="fill: rgb(224, 224, 224); transform-origin: 61.03px 347.34px 0px;" id="el9j3xpi0y46" class="animable"></path><path d="M64.05,351a10.89,10.89,0,0,1-2.48-4.64,13.14,13.14,0,0,1-.56-4.68h.19c-.08.36-.15.55-.18.54s0-.2,0-.57l.2,0a20.76,20.76,0,0,0,.79,4.55A34.54,34.54,0,0,0,64.05,351Z" style="fill: rgb(224, 224, 224); transform-origin: 62.5177px 346.325px 0px;" id="elg6vrx66m3sq" class="animable"></path><path d="M56.41,341.39a8.1,8.1,0,0,0-1.74-1,11.39,11.39,0,0,0-4.8-.38,29.82,29.82,0,0,0-4.85.78,16.11,16.11,0,0,1-2,.48,6.52,6.52,0,0,1,1.91-.78,22,22,0,0,1,4.89-.93,10.48,10.48,0,0,1,5,.54A3.08,3.08,0,0,1,56.41,341.39Z" style="fill: rgb(224, 224, 224); transform-origin: 49.715px 340.428px 0px;" id="elkau1szn72r" class="animable"></path><path d="M54.59,339.06c0,.07-1-.41-2.65-1a26.79,26.79,0,0,0-13.37-1c-1.71.31-2.75.63-2.77.55a2.65,2.65,0,0,1,.7-.3,18.14,18.14,0,0,1,2-.56,23.75,23.75,0,0,1,6.84-.48,24.05,24.05,0,0,1,6.7,1.51,17.71,17.71,0,0,1,1.89.86C54.38,338.89,54.61,339,54.59,339.06Z" style="fill: rgb(224, 224, 224); transform-origin: 45.1956px 337.635px 0px;" id="elklw8iua1k9" class="animable"></path><path d="M69.91,329.2A55.68,55.68,0,0,1,68,322.48a55.52,55.52,0,0,1-1.51-6.83,54.55,54.55,0,0,1,1.94,6.72A54.29,54.29,0,0,1,69.91,329.2Z" style="fill: rgb(224, 224, 224); transform-origin: 68.2px 322.425px 0px;" id="el4pd3cqp2my6" class="animable"></path><path d="M70,329.2a32.37,32.37,0,0,0-2.14-4,17.49,17.49,0,0,0-3.16-3.26,2.86,2.86,0,0,1,1.22.63,9.86,9.86,0,0,1,2.31,2.37A8.81,8.81,0,0,1,70,329.2Z" style="fill: rgb(224, 224, 224); transform-origin: 67.35px 325.57px 0px;" id="el6ibpse3o1pc" class="animable"></path><path d="M69.94,417.77s-.14-.75-.48-2.06a30.15,30.15,0,0,0-2.07-5.35,73.8,73.8,0,0,0-11-15.43c-2.44-2.8-4.81-5.43-6.83-8a56.22,56.22,0,0,1-4.89-7.05,33.62,33.62,0,0,1-2.46-5.23c-.23-.64-.4-1.14-.49-1.49a2.34,2.34,0,0,1-.12-.54s.26.71.77,2A38,38,0,0,0,45,379.76a58.41,58.41,0,0,0,4.93,6.95c2,2.5,4.4,5.12,6.85,7.92,4.95,5.56,8.83,11.16,10.9,15.59a26.2,26.2,0,0,1,2,5.45,15.2,15.2,0,0,1,.28,1.55A2.27,2.27,0,0,1,69.94,417.77Z" style="fill: rgb(224, 224, 224); transform-origin: 55.7841px 395.195px 0px;" id="elyk3zizgmfiq" class="animable"></path><path d="M94.34,390.21a12.5,12.5,0,0,1-1.27.71,26.11,26.11,0,0,0-3.32,2.2,37.47,37.47,0,0,0-4.36,4c-1.53,1.61-3.1,3.49-4.71,5.5-3.21,4-6.22,7.6-8,10.45-.91,1.41-1.58,2.6-2,3.44a12.21,12.21,0,0,1-.71,1.29,1.61,1.61,0,0,1,.12-.37c.1-.23.23-.57.43-1a34.61,34.61,0,0,1,1.9-3.53,115.33,115.33,0,0,1,7.94-10.56c1.61-2,3.21-3.89,4.76-5.51a36.26,36.26,0,0,1,4.47-3.94A23.51,23.51,0,0,1,93,390.77c.43-.21.77-.34,1-.44S94.34,390.19,94.34,390.21Z" style="fill: rgb(224, 224, 224); transform-origin: 82.155px 404.003px 0px;" id="eld4ax2uyb7hr" class="animable"></path><path d="M94.82,399.15a19.22,19.22,0,0,1-2.7.39,35,35,0,0,0-6.41,1.26,19.41,19.41,0,0,0-5.74,3c-1.33,1-2,1.87-2,1.82a2.33,2.33,0,0,1,.4-.62,10.13,10.13,0,0,1,1.41-1.44,17.44,17.44,0,0,1,5.8-3.19,29.13,29.13,0,0,1,6.52-1.16A14.32,14.32,0,0,1,94.82,399.15Z" style="fill: rgb(224, 224, 224); transform-origin: 86.395px 402.367px 0px;" id="els3eltcudh2" class="animable"></path><path d="M78.75,404.65c-.14-.08,1.08-1.94,2-4.44s1.09-4.74,1.25-4.72a4.13,4.13,0,0,1,0,1.45,14.77,14.77,0,0,1-2.36,6.55A4.29,4.29,0,0,1,78.75,404.65Z" style="fill: rgb(224, 224, 224); transform-origin: 80.4015px 400.07px 0px;" id="elwjfdg8hxuz" class="animable"></path><path d="M102.25,366.2a2.29,2.29,0,0,1-.44.23l-1.27.58c-.55.24-1.23.54-2,.94s-1.65.8-2.58,1.36l-1.48.84c-.51.29-1,.64-1.55,1-1.09.66-2.18,1.47-3.34,2.3a62.34,62.34,0,0,0-7,6.13,63.07,63.07,0,0,0-5.89,7.17c-.79,1.19-1.56,2.31-2.18,3.42-.32.55-.65,1.06-.93,1.59l-.79,1.5c-.52.94-.9,1.85-1.27,2.63s-.65,1.45-.87,2-.39.95-.53,1.29a2,2,0,0,1-.22.44,2.15,2.15,0,0,1,.13-.47c.12-.35.27-.79.46-1.32a19.09,19.09,0,0,1,.81-2.06c.34-.79.7-1.71,1.21-2.67l.77-1.53c.27-.53.59-1.05.91-1.61.61-1.12,1.38-2.26,2.16-3.46a55.45,55.45,0,0,1,12.95-13.4c1.18-.83,2.29-1.64,3.39-2.29.55-.33,1.06-.67,1.58-1l1.5-.82c.94-.54,1.85-.93,2.62-1.3a19.9,19.9,0,0,1,2-.88l1.3-.5A2.41,2.41,0,0,1,102.25,366.2Z" style="fill: rgb(224, 224, 224); transform-origin: 86.08px 382.91px 0px;" id="el8b8authvuj7" class="animable"></path><path d="M82.93,379.14A3.18,3.18,0,0,1,84,377.56a6.68,6.68,0,0,1,4.28-1.64,11.61,11.61,0,0,1,4.5.88,6.32,6.32,0,0,1,1.7.82,9.43,9.43,0,0,1-1.81-.53,13.94,13.94,0,0,0-4.38-.73,7,7,0,0,0-4.09,1.44A14.1,14.1,0,0,0,82.93,379.14Z" style="fill: rgb(224, 224, 224); transform-origin: 88.705px 377.53px 0px;" id="el1k38xjyifft" class="animable"></path><path d="M80.05,382.12a16.31,16.31,0,0,0,1.21-3.95A15.66,15.66,0,0,0,81,374a2.62,2.62,0,0,1,.5,1.15,8.28,8.28,0,0,1,.22,3,8,8,0,0,1-.91,2.89C80.42,381.8,80.09,382.15,80.05,382.12Z" style="fill: rgb(224, 224, 224); transform-origin: 80.9098px 378.061px 0px;" id="el46382ivhbfi" class="animable"></path><path d="M48.6,422.19c.67,11.81,4.22,23.82,9.7,36H82.1c5.22-12,8.53-24,9.12-36Z" style="fill: rgb(224, 224, 224); transform-origin: 69.91px 440.19px 0px;" id="elm42vg8hfg3" class="animable"></path><path d="M87.36,441.3c0,.13-7.83.23-17.5.23s-17.5-.1-17.5-.23,7.83-.22,17.5-.22S87.36,441.18,87.36,441.3Z" style="fill: rgb(250, 250, 250); transform-origin: 69.86px 441.305px 0px;" id="elts0f0swt0ip" class="animable"></path><path d="M86.83,445.58c0,.12-7.34.22-16.4.22S54,445.7,54,445.58s7.34-.22,16.41-.22S86.83,445.46,86.83,445.58Z" style="fill: rgb(250, 250, 250); transform-origin: 70.415px 445.58px 0px;" id="el7d3nbb7t5gy" class="animable"></path><path d="M58.68,430a65.4,65.4,0,0,1,0,11,68.36,68.36,0,0,1,0-11Z" style="fill: rgb(250, 250, 250); transform-origin: 58.685px 435.5px 0px;" id="el55itfq5oor7" class="animable"></path><path d="M71.44,430a73.3,73.3,0,0,1,0,11.35,70.13,70.13,0,0,1,0-11.35Z" style="fill: rgb(250, 250, 250); transform-origin: 71.435px 435.675px 0px;" id="elyd14cg8i5pi" class="animable"></path><path d="M83.41,429.85a76.3,76.3,0,0,1,0,11.58,73,73,0,0,1,0-11.58Z" style="fill: rgb(250, 250, 250); transform-origin: 83.405px 435.64px 0px;" id="elknw3r18l0t" class="animable"></path><path d="M90.47,430c0,.12-9.2.22-20.53.22s-20.53-.1-20.53-.22,9.19-.23,20.53-.23S90.47,429.82,90.47,430Z" style="fill: rgb(250, 250, 250); transform-origin: 69.94px 429.995px 0px;" id="elrqmq5pxdo3" class="animable"></path><rect x="28.51" y="71.83" width="95.42" height="138.31" style="fill: rgb(224, 224, 224); transform-origin: 76.22px 140.985px 0px;" id="el95xj33afkp5" class="animable"></rect><rect x="23.73" y="71.83" width="95.42" height="138.31" style="fill: rgb(245, 245, 245); transform-origin: 71.44px 140.985px 0px;" id="eltub0caqdcq" class="animable"></rect><rect x="35.58" y="86.81" width="71.71" height="108.35" style="fill: rgb(255, 255, 255); transform-origin: 71.435px 140.985px 0px;" id="elwpfy96lbcp" class="animable"></rect><path d="M107.29,195.15s0-.18,0-.53,0-.86,0-1.53c0-1.36,0-3.36,0-6,0-5.19,0-12.76-.06-22.31,0-19.11-.07-46.16-.12-78l.24.23-71.7,0h0l.26-.26c0,40.87,0,78.55-.05,108.34l-.21-.2,52.2.11,14.42.05,3.78,0,1.31,0s-.42,0-1.27,0l-3.74,0-14.38.05-52.32.11h-.21v-.21c0-29.79,0-67.47,0-108.34v-.26h.27l71.7,0h.24v.24c0,31.92-.09,59-.12,78.17,0,9.54,0,17.09-.06,22.27,0,2.56,0,4.54,0,5.89,0,.66,0,1.16,0,1.51S107.29,195.15,107.29,195.15Z" style="fill: rgb(224, 224, 224); transform-origin: 71.545px 140.805px 0px;" id="el5w55bvq3k59" class="animable"></path><path d="M119.41,71.83a16.62,16.62,0,0,1-1.7,2.47c-1.11,1.48-2.68,3.5-4.48,5.68s-3.47,4.11-4.71,5.48a16.27,16.27,0,0,1-2.1,2.14,17,17,0,0,1,1.82-2.38l4.59-5.57,4.59-5.58A17.91,17.91,0,0,1,119.41,71.83Z" style="fill: rgb(224, 224, 224); transform-origin: 112.915px 79.715px 0px;" id="elhhpw6a8i8cl" class="animable"></path><path d="M107.66,194.8a88.56,88.56,0,0,0,12.5,15.65" style="fill: rgb(255, 255, 255); transform-origin: 113.91px 202.625px 0px;" id="el6txeam3yqye" class="animable"></path><path d="M120.16,210.45a14.9,14.9,0,0,1-2.18-2,69.59,69.59,0,0,1-4.72-5.32,70.91,70.91,0,0,1-4.15-5.77,13.58,13.58,0,0,1-1.45-2.57,21.8,21.8,0,0,1,1.75,2.36c1.06,1.48,2.53,3.5,4.26,5.66s3.37,4,4.58,5.39A17.64,17.64,0,0,1,120.16,210.45Z" style="fill: rgb(224, 224, 224); transform-origin: 113.91px 202.62px 0px;" id="el8dkg98tuz6x" class="animable"></path><path d="M23.71,210l12.5-15.42" style="fill: rgb(255, 255, 255); transform-origin: 29.96px 202.29px 0px;" id="elvcqnhiqqal" class="animable"></path><path d="M36.21,194.6a96,96,0,0,1-6.05,7.88A94,94,0,0,1,23.71,210a97,97,0,0,1,6.05-7.87A95.32,95.32,0,0,1,36.21,194.6Z" style="fill: rgb(224, 224, 224); transform-origin: 29.96px 202.3px 0px;" id="elew1s3ms5qji" class="animable"></path><path d="M23.73,71.83a86.37,86.37,0,0,1,6.06,7.25,85.89,85.89,0,0,1,5.66,7.57,85.25,85.25,0,0,1-6.07-7.25A84.47,84.47,0,0,1,23.73,71.83Z" style="fill: rgb(224, 224, 224); transform-origin: 29.59px 79.24px 0px;" id="elf1svld07xcj" class="animable"></path><rect x="60.94" y="108.8" width="24.01" height="68.17" style="fill: rgb(224, 224, 224); transform-origin: 72.945px 142.885px 0px;" id="el88oaieiim6d" class="animable"></rect></g><g id="freepik--Floor--inject-229" style="transform-origin: 250px 458.38px 0px;" class="animable"><path d="M473.22,458.38c0,.15-100,.26-223.21.26s-223.23-.11-223.23-.26,99.92-.26,223.23-.26S473.22,458.24,473.22,458.38Z" style="fill: rgb(38, 50, 56); transform-origin: 250px 458.38px 0px;" id="el47c5oprrhl6" class="animable"></path></g><g id="freepik--Manual--inject-229" style="transform-origin: 269.17px 259.93px 0px;" class="animable"><path d="M118.41,64.57H402.64A10.76,10.76,0,0,1,413.4,75.32V446.92a10.76,10.76,0,0,1-10.76,10.76H118.41a0,0,0,0,1,0,0V64.57A0,0,0,0,1,118.41,64.57Z" style="fill: #FF704D; transform-origin: 265.905px 261.125px 0px;" id="elaap02f8jqp6" class="animable"></path><g id="eltesbb4mncnc"><g style="opacity: 0.3; transform-origin: 265.905px 261.125px 0px;" class="animable" id="elllcyeyifjc7"><path d="M118.41,64.57H402.64A10.76,10.76,0,0,1,413.4,75.32V446.92a10.76,10.76,0,0,1-10.76,10.76H118.41a0,0,0,0,1,0,0V64.57A0,0,0,0,1,118.41,64.57Z" id="ell4tnybf06fl" style="transform-origin: 265.905px 261.125px 0px;" class="animable"></path></g></g><rect x="247.53" y="76.74" width="157.7" height="380.93" style="fill: rgb(224, 224, 224); transform-origin: 326.38px 267.205px 0px;" id="elh4bptxz2rur" class="animable"></rect><path d="M117.18,61.47H381.34a10.76,10.76,0,0,1,10.76,10.76V446.92a10.76,10.76,0,0,1-10.76,10.76H117.18a0,0,0,0,1,0,0V61.47A0,0,0,0,1,117.18,61.47Z" style="fill: #FF704D; transform-origin: 254.64px 259.575px 0px;" id="elpaunmogwcs" class="animable"></path><path d="M145.44,458.39c-.15,0-.26-88.86-.26-198.45s.11-198.47.26-198.47.26,88.84.26,198.47S145.58,458.39,145.44,458.39Z" style="fill: rgb(38, 50, 56); transform-origin: 145.44px 259.93px 0px;" id="el19oil1a0gnb" class="animable"></path><path d="M152.86,458.39c-.14,0-.26-88.86-.26-198.45s.12-198.47.26-198.47.26,88.84.26,198.47S153,458.39,152.86,458.39Z" style="fill: rgb(38, 50, 56); transform-origin: 152.86px 259.93px 0px;" id="el5fuj348oqy6" class="animable"></path><path d="M218.47,208.56l-.07-12.41-6,10.1h-2.95l-6-9.77v12.08h-6.12V185.14h5.45L211,198.66l8-13.52h5.45l.07,23.42Z" style="fill: rgb(255, 255, 255); transform-origin: 210.925px 196.85px 0px;" id="elsbd6raoukwj" class="animable"></path><path d="M244.94,204H235l-1.84,4.55h-6.76l10.34-23.42h6.53l10.37,23.42h-6.89ZM243,199.13l-3-7.5-3,7.5Z" style="fill: rgb(255, 255, 255); transform-origin: 240.02px 196.84px 0px;" id="el3ef3h1k7imt" class="animable"></path><path d="M277.84,185.14v23.42h-5.46L262,196.08v12.48h-6.49V185.14H261l10.34,12.48V185.14Z" style="fill: rgb(255, 255, 255); transform-origin: 266.675px 196.85px 0px;" id="elpgr7tgx04jq" class="animable"></path><path d="M282.32,198.12v-13H289v12.78c0,4,1.67,5.62,4.45,5.62s4.41-1.6,4.41-5.62V185.14h6.53v13c0,7-4.08,10.91-11,10.91S282.32,205.12,282.32,198.12Z" style="fill: rgb(255, 255, 255); transform-origin: 293.355px 197.085px 0px;" id="eltxg0ik0pcvl" class="animable"></path><path d="M324,204h-9.91l-1.84,4.55h-6.76l10.34-23.42h6.53l10.37,23.42h-6.89Zm-1.94-4.88-3-7.5-3,7.5Z" style="fill: rgb(255, 255, 255); transform-origin: 319.11px 196.84px 0px;" id="elanz3trysjxs" class="animable"></path><path d="M334.63,185.14h6.62v18.17h11.18v5.25h-17.8Z" style="fill: rgb(255, 255, 255); transform-origin: 343.53px 196.85px 0px;" id="elilo6ovb8s7" class="animable"></path><path d="M207.43,164.49h1.38v13.08h-1.38Z" style="fill: rgb(255, 255, 255); transform-origin: 208.12px 171.03px 0px;" id="elg9vz8oz5sje" class="animable"></path><path d="M224,164.49v13.08h-1.14L214.46,167v10.62h-1.39V164.49h1.14l8.44,10.61V164.49Z" style="fill: rgb(255, 255, 255); transform-origin: 218.535px 171.055px 0px;" id="el038gm9y1463c" class="animable"></path><path d="M227,176l.54-1.06a6.47,6.47,0,0,0,4.32,1.58c2.45,0,3.52-1,3.52-2.31,0-3.59-8.06-1.39-8.06-6.23,0-1.92,1.5-3.59,4.82-3.59a7.39,7.39,0,0,1,4.06,1.16l-.47,1.11a6.73,6.73,0,0,0-3.59-1.09c-2.39,0-3.46,1.07-3.46,2.38,0,3.58,8.06,1.42,8.06,6.18,0,1.93-1.53,3.57-4.88,3.57A7.09,7.09,0,0,1,227,176Z" style="fill: rgb(255, 255, 255); transform-origin: 231.87px 171.047px 0px;" id="ele5ccxq0m3bc" class="animable"></path><path d="M242.13,165.68h-4.6v-1.19h10.58v1.19h-4.6v11.89h-1.38Z" style="fill: rgb(255, 255, 255); transform-origin: 242.82px 171.03px 0px;" id="el2tkb8mija59" class="animable"></path><path d="M259.25,177.57l-3-4.21a8.74,8.74,0,0,1-1,.06H251.7v4.15h-1.38V164.49h4.89c3.33,0,5.35,1.68,5.35,4.48a4,4,0,0,1-3,4.11l3.2,4.49Zm-.07-8.6c0-2.09-1.39-3.29-4-3.29H251.7v6.56h3.48C257.79,172.24,259.18,171,259.18,169Z" style="fill: rgb(255, 255, 255); transform-origin: 255.54px 171.03px 0px;" id="elmcukyhqbqng" class="animable"></path><path d="M263.72,172v-7.49h1.38v7.44c0,3.1,1.46,4.52,4,4.52s4-1.42,4-4.52v-7.44h1.35V172c0,3.76-2,5.7-5.37,5.7S263.72,175.74,263.72,172Z" style="fill: rgb(255, 255, 255); transform-origin: 269.085px 171.105px 0px;" id="ele835ia0a1ht" class="animable"></path><path d="M277.48,171a6.58,6.58,0,0,1,6.86-6.66,6.35,6.35,0,0,1,4.79,1.91l-.88.88a5.18,5.18,0,0,0-3.87-1.55,5.42,5.42,0,1,0,0,10.84,5.16,5.16,0,0,0,3.87-1.57l.88.88a6.37,6.37,0,0,1-4.81,1.92A6.56,6.56,0,0,1,277.48,171Z" style="fill: rgb(255, 255, 255); transform-origin: 283.305px 170.995px 0px;" id="elar9x85itnro" class="animable"></path><path d="M294.46,165.68h-4.6v-1.19h10.58v1.19h-4.6v11.89h-1.38Z" style="fill: rgb(255, 255, 255); transform-origin: 295.15px 171.03px 0px;" id="elkaq6pwz3ekl" class="animable"></path><path d="M302.65,164.49H304v13.08h-1.38Z" style="fill: rgb(255, 255, 255); transform-origin: 303.31px 171.03px 0px;" id="elpg82sixd48" class="animable"></path><path d="M307.13,171a6.87,6.87,0,1,1,6.88,6.65A6.59,6.59,0,0,1,307.13,171Zm12.36,0a5.5,5.5,0,1,0-5.48,5.42A5.3,5.3,0,0,0,319.49,171Z" style="fill: rgb(255, 255, 255); transform-origin: 313.997px 170.783px 0px;" id="el3wvw2c427a2" class="animable"></path><path d="M334.91,164.49v13.08h-1.14L325.36,167v10.62H324V164.49h1.14l8.43,10.61V164.49Z" style="fill: rgb(255, 255, 255); transform-origin: 329.455px 171.055px 0px;" id="el2r43tc9e4xd" class="animable"></path><g id="elkcsg06c2eu"><g style="opacity: 0.3; transform-origin: 149.155px 259.93px 0px;" class="animable" id="eltltk5cu0uq"><rect x="145.44" y="61.47" width="7.43" height="396.92" id="el6qd1gw0q5t" style="transform-origin: 149.155px 259.93px 0px;" class="animable"></rect></g></g><polygon points="309 106.82 309 61.47 352.68 61.47 352.68 107.66 331.26 129.08 309 106.82" style="fill: rgb(69, 90, 100); transform-origin: 330.84px 95.275px 0px;" id="elt172at3lk69" class="animable"></polygon><path d="M396,76.74c.14,0,.26,84.36.26,188.4s-.12,188.42-.26,188.42-.26-84.34-.26-188.42S395.88,76.74,396,76.74Z" style="fill: rgb(38, 50, 56); transform-origin: 396px 265.15px 0px;" id="eli2gv22z801" class="animable"></path><path d="M400.5,76.74c.14,0,.26,84.36.26,188.4s-.12,188.42-.26,188.42-.26-84.34-.26-188.42S400.35,76.74,400.5,76.74Z" style="fill: rgb(38, 50, 56); transform-origin: 400.5px 265.15px 0px;" id="el5id6f84g5wj" class="animable"></path><polygon points="396.03 131.55 406.97 131.55 416.97 139.13 408 148.09 396.03 148.09 396.03 131.55" style="fill: rgb(69, 90, 100); transform-origin: 406.5px 139.82px 0px;" id="elwl2f55mw01s" class="animable"></polygon><rect x="400.5" y="164.03" width="20.66" height="13.76" style="fill: #FF704D; transform-origin: 410.83px 170.91px 0px;" id="elaminzka7qqt" class="animable"></rect><g id="elknivdyo07m"><g style="opacity: 0.3; transform-origin: 269.652px 289.777px 0px;" class="animable" id="elkvfek2445sn"><path d="M320.58,327.54l-12.34,12a3.26,3.26,0,0,1-4.54,0l-85-81.36a3.27,3.27,0,0,1-.1-4.62l12.88-13.46a3.27,3.27,0,0,1,4.65-.07l84.49,82.79A3.26,3.26,0,0,1,320.58,327.54Z" id="el0qp4poe0b56" style="transform-origin: 269.652px 289.777px 0px;" class="animable"></path></g></g><path d="M241.42,245.56a27.46,27.46,0,0,1-3.42,3.92,26.51,26.51,0,0,1-3.79,3.57,26.84,26.84,0,0,1,3.42-3.92A25.91,25.91,0,0,1,241.42,245.56Z" style="fill: rgb(38, 50, 56); transform-origin: 237.815px 249.305px 0px;" id="elpxcuyn3tzn" class="animable"></path><path d="M254.93,258.57a52.54,52.54,0,0,1-7.21,7.5,26.6,26.6,0,0,1,3.42-3.93A27.23,27.23,0,0,1,254.93,258.57Z" style="fill: rgb(38, 50, 56); transform-origin: 251.325px 262.32px 0px;" id="el4ryoos7esvi" class="animable"></path><path d="M247.87,251.51a47.51,47.51,0,0,1-4.67,5.18,48.46,48.46,0,0,1-5,4.81,48,48,0,0,1,4.67-5.17A46.86,46.86,0,0,1,247.87,251.51Z" style="fill: rgb(38, 50, 56); transform-origin: 243.035px 256.505px 0px;" id="elnyo6ds2i7cg" class="animable"></path><path d="M261.76,265.4a46.92,46.92,0,0,1-4.67,5.17,48,48,0,0,1-5,4.82,94,94,0,0,1,9.7-10Z" style="fill: rgb(38, 50, 56); transform-origin: 256.94px 270.39px 0px;" id="elwqkiapi4pq" class="animable"></path><path d="M268.14,271.79a26.12,26.12,0,0,1-3.42,3.92,26.77,26.77,0,0,1-3.78,3.57,26.23,26.23,0,0,1,3.41-3.92A26.51,26.51,0,0,1,268.14,271.79Z" style="fill: rgb(38, 50, 56); transform-origin: 264.54px 275.535px 0px;" id="el6u2l5cy9ypc" class="animable"></path><path d="M275,278.62a49.67,49.67,0,0,1-4.66,5.17,46.69,46.69,0,0,1-5,4.81,49.14,49.14,0,0,1,4.67-5.17A47.2,47.2,0,0,1,275,278.62Z" style="fill: rgb(38, 50, 56); transform-origin: 270.17px 283.61px 0px;" id="ely4n1ob3gmjl" class="animable"></path><path d="M281.36,285a52.54,52.54,0,0,1-7.21,7.5,26.6,26.6,0,0,1,3.42-3.93A25.91,25.91,0,0,1,281.36,285Z" style="fill: rgb(38, 50, 56); transform-origin: 277.755px 288.75px 0px;" id="elgzhw2xyq2wm" class="animable"></path><path d="M288.18,291.83a46,46,0,0,1-4.66,5.17,46.37,46.37,0,0,1-5,4.82,47.51,47.51,0,0,1,4.67-5.18A48.46,48.46,0,0,1,288.18,291.83Z" style="fill: rgb(38, 50, 56); transform-origin: 283.35px 296.825px 0px;" id="eluknf3b8qlq7" class="animable"></path><path d="M294.57,298.21a52.54,52.54,0,0,1-7.21,7.5,27.19,27.19,0,0,1,3.42-3.93A28,28,0,0,1,294.57,298.21Z" style="fill: rgb(38, 50, 56); transform-origin: 290.965px 301.96px 0px;" id="elfpe90vfz58s" class="animable"></path><path d="M301.4,305a47.51,47.51,0,0,1-4.67,5.18,48.46,48.46,0,0,1-5,4.81,48.51,48.51,0,0,1,4.66-5.17A47.46,47.46,0,0,1,301.4,305Z" style="fill: rgb(38, 50, 56); transform-origin: 296.565px 309.995px 0px;" id="eli6h1ziz0rtk" class="animable"></path><path d="M307.78,311.43a25.67,25.67,0,0,1-3.41,3.92,27.13,27.13,0,0,1-3.79,3.57A26,26,0,0,1,304,315,26.77,26.77,0,0,1,307.78,311.43Z" style="fill: rgb(38, 50, 56); transform-origin: 304.18px 315.175px 0px;" id="el5ufjmmbix3o" class="animable"></path><g id="elro068lyuojl"><g style="opacity: 0.3; transform-origin: 299.031px 261.229px 0px;" class="animable" id="elsspyaexgin"><path d="M275.71,273.23l11.9,11.16,8-7.87s12.87,4,21.15-5.14c7.52-8.27,5.28-20.3,5.28-20.3l-13.86,12.23-11.73-11.73,12.37-12.83a21.26,21.26,0,0,0-21.58,6.86c-7.44,8.43-3.6,19.51-3.6,19.51Z" id="el11rolh5p0pu" style="transform-origin: 299.031px 261.229px 0px;" class="animable"></path></g></g><g id="eli5arnmr3ds"><g style="opacity: 0.3; transform-origin: 237.805px 317.588px 0px;" class="animable" id="elcic0ph4ol5v"><path d="M260.93,305.8c-.29-.52-11.88-11.13-11.88-11.13l-7.54,7.38s-14.15-2.82-21.15,5.14c-7.84,8.91-5.28,20.3-5.28,20.3l13.86-12.23L240.67,327,228.3,339.82A21.28,21.28,0,0,0,249.88,333c7.44-8.43,3.6-19.52,3.6-19.52Z" id="eljfrj5h2a8lg" style="transform-origin: 237.805px 317.588px 0px;" class="animable"></path></g></g><path d="M358.81,413.85c0,.15-37.54.26-83.83.26s-83.84-.11-83.84-.26,37.53-.26,83.84-.26S358.81,413.71,358.81,413.85Z" style="fill: rgb(255, 255, 255); transform-origin: 274.975px 413.85px 0px;" id="elgz709uqb8so" class="animable"></path><path d="M330.84,421.84c0,.14-24.69.26-55.13.26s-55.14-.12-55.14-.26,24.69-.26,55.14-.26S330.84,421.69,330.84,421.84Z" style="fill: rgb(255, 255, 255); transform-origin: 275.705px 421.84px 0px;" id="eldce9be530im" class="animable"></path><rect x="268.37" y="429.51" width="13.21" height="13.21" style="fill: rgb(224, 224, 224); transform-origin: 274.975px 436.115px 0px;" id="ela6wx9nshtyn" class="animable"></rect></g><g id="freepik--Character--inject-229" style="transform-origin: 112.741px 295.284px 0px;" class="animable"><path d="M129.89,440.12l-2.78,20.22s19.61,9.61,19.46,13.39l-39.38-4,3-31.67Z" style="fill: rgb(69, 90, 100); transform-origin: 126.88px 455.895px 0px;" id="elfsro4gaf0zs" class="animable"></path><path d="M115.1,457.4a1.61,1.61,0,0,0-1.29,1.72,1.55,1.55,0,0,0,1.69,1.3,1.71,1.71,0,0,0,1.37-1.83,1.62,1.62,0,0,0-1.92-1.16" style="fill: rgb(224, 224, 224); transform-origin: 115.34px 458.909px 0px;" id="elcjdjk1b7yka" class="animable"></path><g id="el3eth1s7fb9c"><g style="opacity: 0.6; transform-origin: 126.901px 470.155px 0px;" class="animable" id="el2yuv43v9jsw"><path d="M107.19,469.76l.43-3.18,37.6,5s1.68.94,1.35,2.15Z" style="fill: rgb(255, 255, 255); transform-origin: 126.901px 470.155px 0px;" id="ell2lte6j5l2f" class="animable"></path></g></g><path d="M127.77,460.2c0,.19-1,.18-2,.71s-1.59,1.28-1.76,1.18.23-1.17,1.46-1.79S127.83,460,127.77,460.2Z" style="fill: rgb(38, 50, 56); transform-origin: 125.873px 461.018px 0px;" id="el51y4af7a0v3" class="animable"></path><path d="M131.73,462.33c0,.19-.84.43-1.58,1.18s-1,1.59-1.2,1.56-.2-1.13.73-2S131.74,462.14,131.73,462.33Z" style="fill: rgb(38, 50, 56); transform-origin: 130.287px 463.656px 0px;" id="el73oup4r6bvn" class="animable"></path><path d="M133.57,467.51c-.18,0-.35-1,.25-2s1.55-1.33,1.61-1.16-.55.67-1,1.5S133.77,467.51,133.57,467.51Z" style="fill: rgb(38, 50, 56); transform-origin: 134.418px 465.909px 0px;" id="elrn34goafinr" class="animable"></path><path d="M127.89,455.52c-.1.17-1-.18-2-.22s-2,.22-2.06.05.8-.78,2.09-.72S128,455.38,127.89,455.52Z" style="fill: rgb(38, 50, 56); transform-origin: 125.864px 455.096px 0px;" id="elbuid0snahze" class="animable"></path><path d="M76.36,303.45s-7.23,51.32-3.59,59.71c2.81,6.49,7.79,9.31,14.16,10.95,9.19,2.36,23.93,4.05,23.93,4.05l5-29.57-11.23-2.45,10.34-36.79L96.64,296.82Z" style="fill: rgb(38, 50, 56); transform-origin: 93.8028px 337.49px 0px;" id="el5f5h30mmlrq" class="animable"></path><path d="M114.93,309.35l-9.06,141.77,25,1.27L142,382.06s11.88-58,12.69-65.09,0-22.15,0-22.15Z" style="fill: rgb(38, 50, 56); transform-origin: 130.46px 373.605px 0px;" id="el85y4oijx8yc" class="animable"></path><path d="M114.22,320.42a1.23,1.23,0,0,1,0,.28c0,.21,0,.48,0,.82,0,.75-.06,1.8-.11,3.13-.13,2.72-.33,6.66-.62,11.52-.57,9.72-1.52,23.15-2.5,38-.45,7.42-.88,14.48-1.27,20.92s-1.09,12.19-1.57,17-.85,8.77-1.06,11.48c-.1,1.33-.18,2.37-.24,3.13,0,.33,0,.6-.07.81a.84.84,0,0,1,0,.27s0-.09,0-.27,0-.49,0-.82c0-.72.07-1.77.15-3.13.15-2.72.44-6.66.89-11.51s1-10.62,1.46-17,.72-13.5,1.23-20.91c1-14.81,2-28.21,2.65-38,.33-4.83.6-8.75.78-11.51.1-1.33.17-2.37.22-3.13,0-.33,0-.6.07-.81A1.33,1.33,0,0,1,114.22,320.42Z" style="fill: rgb(69, 90, 100); transform-origin: 110.505px 374.1px 0px;" id="el7cw7wnygc1a" class="animable"></path><path d="M108.39,332.74a4.33,4.33,0,0,1-.15,1.11c-.14.71-.36,1.74-.66,3-.59,2.51-1.54,6-2.81,9.7s-2.62,7.05-3.68,9.41c-.53,1.18-1,2.13-1.31,2.77a4.36,4.36,0,0,1-.56,1,5.21,5.21,0,0,1,.38-1.06c.31-.78.7-1.72,1.15-2.83,1-2.39,2.26-5.71,3.53-9.44s2.26-7.14,3-9.63l.81-2.94A4.74,4.74,0,0,1,108.39,332.74Z" style="fill: rgb(69, 90, 100); transform-origin: 103.805px 346.235px 0px;" id="el2smfhklqlpb" class="animable"></path><path d="M99.52,178.5l-6,4.79s-19.1,3.41-20.73,6.39L79,228l4.82,32.88s-7.22,19.39-7.42,27.57,0,15,0,15h3.58a32.32,32.32,0,0,1,22.37,9h0l6.59-6,1.29,11.38s25.86,1.59,32.44-3.4,15.51-15.57,15.51-15.57,1.54-26.54-6.33-39.94S142,242.74,142,242.74s2.8-23.12,2.8-23.92,2.39-32.34,2.39-32.34l-19.84-5-5.74-4.39Z" style="fill: rgb(69, 90, 100); transform-origin: 115.546px 247.58px 0px;" id="eldpxzns7u8ee" class="animable"></path><g id="el9p5whlhregl"><g style="opacity: 0.3; transform-origin: 117.545px 261.792px 0px;" class="animable" id="elgrct84k8ntl"><path d="M83.12,262.73a11.11,11.11,0,0,0,9.19,2.82c2.21-.3,4.34-1.25,6.58-1.22,3.26.05,6.07,2.13,8.91,3.72a32.78,32.78,0,0,0,20.31,3.82c8-1.11,15.33-5.16,22.13-9.55a4.9,4.9,0,0,0,1.35-1.13,3.09,3.09,0,0,0-.18-3.58,5.18,5.18,0,0,0-3.27-1.84c-2.28-.43-4.61.13-6.89.5a42.94,42.94,0,0,1-14.7-.13c-6.16-1.12-12-3.58-18.24-4.41a35.71,35.71,0,0,0-20.42,3.32,11.17,11.17,0,0,0-3.67,2.57,6.92,6.92,0,0,0-1.1,5.11" id="elmukj4665xrb" style="transform-origin: 117.545px 261.792px 0px;" class="animable"></path></g></g><path d="M104.7,199.34a1,1,0,0,1,0,.3c0,.23,0,.53.06.9L105,204c.16,3,.4,7.37.69,12.7.53,10.76,1.27,25.57,2.08,41.92.19,4.09.38,8.09.56,11.95s.37,7.58.36,11.14c0,1.78,0,3.52-.16,5.2s-.32,3.3-.3,4.87c0,3.14.26,6.1.21,8.78s.4,5.08.62,7.2.45,3.93.63,5.43.29,2.62.38,3.44c0,.37.06.67.08.9a1.83,1.83,0,0,1,0,.31,1.77,1.77,0,0,1-.07-.31c0-.22-.07-.52-.13-.89l-.47-3.42-.72-5.43c-.25-2.12-.57-4.52-.7-7.22,0-2.7-.24-5.61-.27-8.79,0-1.59.17-3.23.27-4.9s.15-3.4.14-5.17c0-3.54-.2-7.26-.39-11.12s-.38-7.86-.57-11.95c-.76-16.35-1.44-31.16-1.93-41.92-.22-5.34-.4-9.67-.52-12.71,0-1.47-.09-2.63-.12-3.45,0-.38,0-.67,0-.9S104.7,199.34,104.7,199.34Z" style="fill: rgb(38, 50, 56); transform-origin: 107.413px 258.59px 0px;" id="elmr8sl49jqaq" class="animable"></path><path d="M80.18,196.86,79.6,237l3,7-2.49,19.12L70,257.44a14.33,14.33,0,0,1-7.34-14v-.13c.93-7.78,2.47-20.18,3.76-28.05,2-12.18,3.4-21.76,6.39-25.55Z" style="fill: rgb(69, 90, 100); transform-origin: 72.5931px 226.415px 0px;" id="elp310owxhs9" class="animable"></path><path d="M147.22,186.48s5.79-1.19,8.79,12.78,5.39,38.32,5.39,38.32a2,2,0,0,1,1.19,3s-.4,13.15-2,14.74l-16.67-9.84-1.9-2.77Z" style="fill: rgb(69, 90, 100); transform-origin: 152.458px 220.887px 0px;" id="elohv5hvz4btm" class="animable"></path><polygon points="80.11 262.73 102.5 260.24 104.22 249.35 82.26 247.59 80.11 262.73" style="fill: rgb(157, 96, 84); transform-origin: 92.165px 255.16px 0px;" id="el0qyeoia06ez" class="animable"></polygon><path d="M108.55,194.47a7.89,7.89,0,0,1-.75,1.15c-.58.79-1.32,1.79-2.19,3l-3.3,4.43a.68.68,0,0,1-.49.29.83.83,0,0,1-.52-.17,5,5,0,0,1-.63-.56,13.39,13.39,0,0,1-1.18-1.2,21.91,21.91,0,0,1-2.13-2.82,21.68,21.68,0,0,1-3.26-11.77,18.06,18.06,0,0,1,.43-3.71,7.2,7.2,0,0,1,.39-1.31,33.91,33.91,0,0,0-.45,5,21.44,21.44,0,0,0,5.4,14.25,15.94,15.94,0,0,0,1.14,1.18,6.4,6.4,0,0,0,.56.52c.2.11.24.12.37,0,1.24-1.65,2.41-3.12,3.37-4.35l2.33-2.9A6.2,6.2,0,0,1,108.55,194.47Z" style="fill: rgb(38, 50, 56); transform-origin: 101.324px 192.57px 0px;" id="el3hshp5g9bez" class="animable"></path><path d="M127.38,181.49a1.13,1.13,0,0,1,.06.41,11.47,11.47,0,0,1,0,1.16,16.14,16.14,0,0,1-.64,4.25,43.82,43.82,0,0,1-2.32,5.92,58.23,58.23,0,0,1-3.7,6.85c-.73,1.18-1.46,2.31-2.17,3.4-.18.27-.35.54-.53.8a4.84,4.84,0,0,1-.6.82.81.81,0,0,1-.63.19,1,1,0,0,1-.53-.27,5.23,5.23,0,0,1-.6-.73L112,199.22l-2.53-3.44a8.59,8.59,0,0,1-.87-1.31,10.64,10.64,0,0,1,1,1.18c.68.87,1.58,2,2.66,3.35l3.9,5c.35.47.77,1,1,.72a5.28,5.28,0,0,0,.51-.71l.52-.81c.71-1.09,1.43-2.22,2.15-3.39a62.66,62.66,0,0,0,3.71-6.77,51.08,51.08,0,0,0,2.41-5.83A23.37,23.37,0,0,0,127.38,181.49Z" style="fill: rgb(38, 50, 56); transform-origin: 118.027px 193.393px 0px;" id="elg6joukfrhzw" class="animable"></path><path d="M96.12,197.05c0,.09-1.06.27-2.67,1a13.59,13.59,0,0,0-5.33,4.44l-.15.21-.22-.16A13.49,13.49,0,0,0,86,201.44a14.05,14.05,0,0,0-8.14-1.57,32.1,32.1,0,0,0-3.43.75,2.94,2.94,0,0,1,.85-.43,12.27,12.27,0,0,1,2.53-.68A13.61,13.61,0,0,1,86.27,201a14.28,14.28,0,0,1,1.8,1.17l-.37,0a13.06,13.06,0,0,1,5.62-4.45,11.58,11.58,0,0,1,2-.62A2.24,2.24,0,0,1,96.12,197.05Z" style="fill: rgb(38, 50, 56); transform-origin: 85.275px 199.867px 0px;" id="el83u10fk601u" class="animable"></path><path d="M146.51,199.52a8.39,8.39,0,0,0-3.72-1,10.31,10.31,0,0,0-4.1.77,28.31,28.31,0,0,0-4.57,2.47l-.48.3-.2.13-.14-.19a11.45,11.45,0,0,0-7.67-4.2,17.78,17.78,0,0,0-3.73.11,3.59,3.59,0,0,1,1-.3,10.08,10.08,0,0,1,2.78-.17,11.51,11.51,0,0,1,4,1.06,11.12,11.12,0,0,1,4,3.19l-.35-.06.48-.31a25.6,25.6,0,0,1,4.68-2.48,10.32,10.32,0,0,1,4.29-.69,7,7,0,0,1,2.83.76A2.52,2.52,0,0,1,146.51,199.52Z" style="fill: rgb(38, 50, 56); transform-origin: 134.205px 199.8px 0px;" id="el5oys7ipiqm" class="animable"></path><path d="M141.11,286.62s-.13.13-.39.33l-1.17.85-.86.6c-.32.21-.69.41-1.07.64a27.63,27.63,0,0,1-2.67,1.47l-1.59.77c-.56.26-1.16.47-1.78.73a41.67,41.67,0,0,1-4,1.37,44.68,44.68,0,0,1-19.24,1.14c-1.47-.28-2.87-.51-4.15-.89-.64-.17-1.26-.31-1.85-.51l-1.67-.58a26.52,26.52,0,0,1-2.82-1.14c-.41-.18-.79-.34-1.14-.51l-.92-.5-1.27-.7c-.28-.17-.43-.26-.42-.28a2.18,2.18,0,0,1,.47.19l1.31.61.94.46c.34.15.73.3,1.15.47.82.32,1.74.74,2.82,1.06l1.67.54c.58.18,1.2.31,1.84.47,1.27.36,2.66.57,4.11.84a51.06,51.06,0,0,0,9.58.43,49.38,49.38,0,0,0,9.47-1.57c1.41-.43,2.76-.8,4-1.31.61-.24,1.21-.44,1.77-.69l1.59-.73c1-.44,1.9-1,2.68-1.39.39-.22.76-.4,1.09-.6l.87-.56,1.23-.77A2.12,2.12,0,0,1,141.11,286.62Z" style="fill: rgb(38, 50, 56); transform-origin: 117.605px 290.849px 0px;" id="el360mphwoemz" class="animable"></path><path d="M135,272.52a10.28,10.28,0,0,1-1.16,1.15c-.38.36-.86.8-1.45,1.26s-1.23,1-2,1.55-1.61,1.15-2.57,1.72-2,1.16-3.07,1.75a46.48,46.48,0,0,1-15.43,4.83c-1.24.13-2.42.28-3.53.31s-2.14.07-3.08.05-1.8-.08-2.54-.13a16.33,16.33,0,0,1-1.91-.21,11.07,11.07,0,0,1-1.61-.28,8.68,8.68,0,0,1,1.63.08c.52,0,1.16.11,1.9.12s1.59.09,2.53,0,2,0,3.06-.11,2.26-.21,3.49-.36a48.49,48.49,0,0,0,15.27-4.77c1.09-.58,2.14-1.11,3.07-1.7s1.8-1.12,2.58-1.65,1.44-1,2-1.48,1.1-.84,1.5-1.18A9.84,9.84,0,0,1,135,272.52Z" style="fill: rgb(38, 50, 56); transform-origin: 115.825px 278.833px 0px;" id="el3g2lkv5gg5c" class="animable"></path><path d="M75.22,200.38a6.5,6.5,0,0,1,.25,1.33c.13,1,.29,2.18.49,3.65.42,3.18,1,7.38,1.59,12s1.27,8.84,1.73,12c.21,1.46.38,2.68.52,3.65a8.23,8.23,0,0,1,.13,1.34,6.31,6.31,0,0,1-.33-1.31c-.18-.85-.41-2.09-.69-3.62-.54-3.06-1.23-7.3-1.88-12s-1.14-9-1.44-12.06c-.15-1.55-.26-2.8-.32-3.67A8.08,8.08,0,0,1,75.22,200.38Z" style="fill: rgb(38, 50, 56); transform-origin: 77.5713px 217.365px 0px;" id="el8bkqme1cqva" class="animable"></path><path d="M147.19,192.28a1.83,1.83,0,0,1,0,.51c0,.39,0,.87-.08,1.45-.08,1.26-.22,3.09-.41,5.34-.38,4.5-1,10.71-1.81,17.56s-1.68,13-2.36,17.5c-.34,2.23-.63,4-.85,5.28-.11.57-.2,1.05-.27,1.43a2.38,2.38,0,0,1-.12.5,1.81,1.81,0,0,1,0-.51c0-.39.1-.87.17-1.45.17-1.33.4-3.12.69-5.3.59-4.48,1.39-10.67,2.21-17.51s1.48-13.05,2-17.54c.24-2.18.43-4,.58-5.31.07-.58.13-1.06.17-1.45A1.89,1.89,0,0,1,147.19,192.28Z" style="fill: rgb(38, 50, 56); transform-origin: 144.24px 217.065px 0px;" id="elypjzafj5tpc" class="animable"></path><polygon points="150.75 224.48 122.14 241.72 114.75 239.64 80.83 233.1 73.82 255.35 100.51 257.87 112.28 263.51 117.97 261.05 142.79 244 150.75 224.48" style="fill: #FF704D; transform-origin: 112.285px 243.995px 0px;" id="el4iezbk1hxe6" class="animable"></polygon><path d="M112.27,263.43a25.21,25.21,0,0,1,1.34-3.2c.88-2,2.09-4.65,3.38-7.64s2.43-5.73,3.24-7.71a25.69,25.69,0,0,1,1.41-3.17,3.36,3.36,0,0,1-.23.91c-.18.57-.47,1.39-.83,2.4-.73,2-1.81,4.77-3.11,7.77s-2.56,5.68-3.52,7.6c-.48,1-.89,1.72-1.18,2.25A3.58,3.58,0,0,1,112.27,263.43Z" style="fill: rgb(38, 50, 56); transform-origin: 116.955px 252.57px 0px;" id="el0rg1lp3opi8q" class="animable"></path><path d="M111.47,247.14a14.36,14.36,0,0,1,1.17-3.72,14.93,14.93,0,0,1,1.66-3.52,14.47,14.47,0,0,1-1.17,3.71A15.4,15.4,0,0,1,111.47,247.14Z" style="fill: rgb(38, 50, 56); transform-origin: 112.885px 243.52px 0px;" id="elby9j6s4nhl7" class="animable"></path><path d="M118.19,240.61s.86-3.42,3.45-4.75,24.07-12.5,24.07-12.5l2.55,2.62-26.12,15.74Z" style="fill: rgb(224, 224, 224); transform-origin: 133.225px 232.54px 0px;" id="elsmojhdby86" class="animable"></path><path d="M83.78,233.67l4.35-2.18s12.32-1.33,19.44,0,10.85,5.31,10.62,9.12Z" style="fill: rgb(224, 224, 224); transform-origin: 100.99px 235.754px 0px;" id="el40hrhmd70bq" class="animable"></path><path d="M134.27,242.86a9.4,9.4,0,0,0-4.93,4.92c-1.71,3.79-2.84,5.69-4.93,7s-3.22,2.27-5.68,1.13-6.46-4.86-8.35-5.16c-1.12-.18-1.51,1.56-1.51,1.56s-4.92-3.28-6.63-2.68-.19,1.92,1,3.25a19,19,0,0,1,1.89,2.65c.37-.15-3.42-3.72-5.76-3a1.37,1.37,0,0,0-1.07,1.77l2.85,2.1s-1.51,2.71-.19,3.28,10.81,7.2,12.89,7.2,11.56,1.71,15.54.76,8.42-2.31,8.42-2.31,15.65-5.08,20.38-11.14l-14.21-8.72s-9.47,12.32-10,11a13,13,0,0,1-.57-7C133.89,246.65,135.91,241.94,134.27,242.86Z" style="fill: rgb(157, 96, 84); transform-origin: 128.212px 255.335px 0px;" id="elk0cf6364c3c" class="animable"></path><path d="M121.14,261.37a5.73,5.73,0,0,1-2.2-.64,37.27,37.27,0,0,1-4.69-2.87,20.13,20.13,0,0,1-4.27-3.52,4,4,0,0,1-1.11-2,19.45,19.45,0,0,0,1.38,1.77,25.79,25.79,0,0,0,4.28,3.32c1.82,1.17,3.33,2.36,4.57,3S121.17,261.29,121.14,261.37Z" style="fill: rgb(114, 74, 68); transform-origin: 115.005px 256.855px 0px;" id="elxdowzl4em3i" class="animable"></path><path d="M117.91,265.37a9.18,9.18,0,0,1-2-1.18c-1.2-.79-2.82-1.94-4.56-3.28s-3.25-2.63-4.32-3.59a10,10,0,0,1-1.64-1.66,11.54,11.54,0,0,1,1.88,1.37l4.4,3.47,4.46,3.39A11.58,11.58,0,0,1,117.91,265.37Z" style="fill: rgb(114, 74, 68); transform-origin: 111.65px 260.515px 0px;" id="elh85ryxgzq9" class="animable"></path><path d="M110,264.11c-.12.1-1.82-2-4.32-4.1s-4.8-3.51-4.72-3.64a16.68,16.68,0,0,1,5.06,3.25A17,17,0,0,1,110,264.11Z" style="fill: rgb(114, 74, 68); transform-origin: 105.479px 260.242px 0px;" id="eliryjtu1imj8" class="animable"></path><path d="M112.88,208.4a6.56,6.56,0,0,1-.18-.67,2.86,2.86,0,0,0-1-1.44,2.63,2.63,0,0,0-4.17,2.11,2.63,2.63,0,0,0,1.69,2.43,2.69,2.69,0,0,0,2.49-.33,2.86,2.86,0,0,0,1-1.44,5.14,5.14,0,0,1,.18-.66s.09.25,0,.71a2.77,2.77,0,0,1-1,1.68,3,3,0,0,1-2.87.49,3.06,3.06,0,0,1,0-5.77,3,3,0,0,1,2.87.49,2.8,2.8,0,0,1,1,1.68C113,208.14,112.91,208.4,112.88,208.4Z" style="fill: rgb(38, 50, 56); transform-origin: 109.962px 208.395px 0px;" id="elqzsid3a0k4" class="animable"></path><path d="M113.89,227.48s-.06-.25-.19-.67a2.88,2.88,0,0,0-1-1.43,2.61,2.61,0,1,0-2.49,4.53,2.66,2.66,0,0,0,2.49-.33,2.88,2.88,0,0,0,1-1.43c.13-.42.14-.67.19-.67a1.36,1.36,0,0,1,0,.71,2.82,2.82,0,0,1-1,1.68,3,3,0,0,1-2.87.49,3.05,3.05,0,0,1,0-5.76,3,3,0,0,1,2.87.48,2.87,2.87,0,0,1,1,1.68A1.39,1.39,0,0,1,113.89,227.48Z" style="fill: rgb(38, 50, 56); transform-origin: 110.956px 227.478px 0px;" id="elxx6kv5mx57m" class="animable"></path><path d="M115.76,272.69a6.1,6.1,0,0,1-.19-.66,2.8,2.8,0,0,0-1-1.44,2.67,2.67,0,0,0-2.48-.33,2.6,2.6,0,0,0,0,4.87,2.67,2.67,0,0,0,2.48-.33,2.84,2.84,0,0,0,1-1.44c.14-.41.15-.67.19-.67s.09.26,0,.72a2.82,2.82,0,0,1-1,1.68,3,3,0,0,1-2.87.49,3.06,3.06,0,0,1,0-5.77,3,3,0,0,1,2.87.49,2.79,2.79,0,0,1,1,1.68C115.85,272.44,115.79,272.7,115.76,272.69Z" style="fill: rgb(38, 50, 56); transform-origin: 112.83px 272.695px 0px;" id="elukmqw1nwu5r" class="animable"></path><path d="M115.33,290.5s-.06-.26-.19-.67a2.9,2.9,0,0,0-1-1.44,2.69,2.69,0,0,0-2.49-.33,2.6,2.6,0,0,0,0,4.87,2.69,2.69,0,0,0,2.49-.33,2.86,2.86,0,0,0,1-1.44c.13-.41.14-.67.19-.66a1.34,1.34,0,0,1,0,.71,2.84,2.84,0,0,1-1,1.68,3,3,0,0,1-2.87.49,3.06,3.06,0,0,1,0-5.77,3,3,0,0,1,2.87.49,2.87,2.87,0,0,1,1,1.68A1.41,1.41,0,0,1,115.33,290.5Z" style="fill: rgb(38, 50, 56); transform-origin: 112.399px 290.495px 0px;" id="elkv71vbh1ndj" class="animable"></path><path d="M90.05,129.56a14.24,14.24,0,0,1,6.83-8.64A18,18,0,0,1,109,119.46a38.15,38.15,0,0,1,11.44,4.73,18.65,18.65,0,0,1,5.46,4.26c2.64,3.32,3,7.85,3.26,12.08.2,3.43.38,7-1.07,10.13A10.57,10.57,0,0,1,121,156.4" style="fill: rgb(38, 50, 56); transform-origin: 109.672px 137.701px 0px;" id="el4lp31d93s0k" class="animable"></path><path d="M127.24,146.73a22.71,22.71,0,0,0,5.45-16.83c-.19-2-.75-4.18-2.31-5.49-.8-.67-1.79-1.07-2.61-1.72-1.48-1.18-2.21-3.1-3.61-4.37a5.76,5.76,0,0,0-9.39,2.68c-.74,2.57.37,5.27,1.45,7.72l5,11.34a14.92,14.92,0,0,0,2.31,4,5.06,5.06,0,0,0,4.08,1.87" style="fill: rgb(38, 50, 56); transform-origin: 123.653px 131.784px 0px;" id="elnm5w8sf5uql" class="animable"></path><path d="M91.77,127a19.49,19.49,0,0,0-1.72,24.29,163.9,163.9,0,0,1,8.72-27.18" style="fill: rgb(38, 50, 56); transform-origin: 92.6854px 137.7px 0px;" id="ellx5fjhksdxl" class="animable"></path><path d="M88.16,139.66c.44-6.74,4.93-15,11.65-14.28l15.54,4A11.54,11.54,0,0,1,124,140c0,.26,0-.06,0,.14l-1,38.05-14.46,16.32h0l-9.92-15.26c0-3.28,0-5.9,0-5.88S90,171.88,88.25,160.64C87.38,155.05,87.68,147.15,88.16,139.66Z" style="fill: rgb(157, 96, 84); transform-origin: 105.848px 159.923px 0px;" id="elmcmanpwabtf" class="animable"></path><path d="M103.61,136.14a11.64,11.64,0,0,1-3.26.67,11.84,11.84,0,0,1-3.33,0c0-.08,1.49-.08,3.3-.27S103.59,136.06,103.61,136.14Z" style="fill: rgb(114, 74, 68); transform-origin: 100.315px 136.527px 0px;" id="el6qf41ahu4na" class="animable"></path><path d="M101.1,135.74A7.86,7.86,0,0,1,97,136a13.67,13.67,0,0,1,2-.12A13.53,13.53,0,0,1,101.1,135.74Z" style="fill: rgb(114, 74, 68); transform-origin: 99.05px 135.949px 0px;" id="el778mxqfvuqb" class="animable"></path><path d="M105.78,158c-.08,0-.18-.45-.63-.74s-.9-.22-.92-.29.09-.11.3-.14a1.13,1.13,0,0,1,.77.2,1.23,1.23,0,0,1,.49.64C105.84,157.86,105.81,158,105.78,158Z" style="fill: rgb(114, 74, 68); transform-origin: 105.022px 157.412px 0px;" id="elf93godwkoaw" class="animable"></path><path d="M92.32,148.39a1.44,1.44,0,0,0,1.38,1.46,1.38,1.38,0,0,0,1.49-1.3,1.43,1.43,0,0,0-1.38-1.45A1.37,1.37,0,0,0,92.32,148.39Z" style="fill: rgb(38, 50, 56); transform-origin: 93.755px 148.475px 0px;" id="el7x06swbas79" class="animable"></path><path d="M90.14,144.43c.18.19,1.27-.62,2.82-.61s2.69.78,2.86.6-.1-.43-.59-.79a4,4,0,0,0-2.29-.71,3.83,3.83,0,0,0-2.25.72C90.22,144,90.05,144.34,90.14,144.43Z" style="fill: rgb(38, 50, 56); transform-origin: 92.9939px 143.689px 0px;" id="el39nw3n5536k" class="animable"></path><path d="M106.78,148.39a1.44,1.44,0,0,0,1.38,1.46,1.39,1.39,0,0,0,1.49-1.3,1.43,1.43,0,0,0-1.38-1.45A1.36,1.36,0,0,0,106.78,148.39Z" style="fill: rgb(38, 50, 56); transform-origin: 108.215px 148.474px 0px;" id="eluyuk5x5ewk" class="animable"></path><path d="M105.38,144.75c.18.19,1.28-.61,2.83-.61s2.68.79,2.85.6-.09-.42-.59-.79a4,4,0,0,0-2.29-.71,3.86,3.86,0,0,0-2.24.72C105.46,144.33,105.3,144.67,105.38,144.75Z" style="fill: rgb(38, 50, 56); transform-origin: 108.236px 144.01px 0px;" id="el6iix368cnm9" class="animable"></path><path d="M99.73,156.24a9.87,9.87,0,0,0-2.52-.46c-.39,0-.77-.12-.83-.39a2,2,0,0,1,.26-1.17c.38-1,.77-2,1.18-3,1.64-4.29,2.82-7.81,2.65-7.88s-1.64,3.36-3.28,7.65c-.39,1.06-.77,2.07-1.12,3a2.26,2.26,0,0,0-.21,1.56,1,1,0,0,0,.65.58,2.88,2.88,0,0,0,.67.09A9.86,9.86,0,0,0,99.73,156.24Z" style="fill: rgb(38, 50, 56); transform-origin: 98.1454px 149.826px 0px;" id="el5gb0dpw0lkf" class="animable"></path><path d="M113.52,169.33s-3.65,7.72-14.9,6.64v-2.64A28.25,28.25,0,0,0,113.52,169.33Z" style="fill: rgb(114, 74, 68); transform-origin: 106.07px 172.702px 0px;" id="elc956e6zee0l" class="animable"></path><path d="M100.38,160a2.78,2.78,0,0,1,2.51-1,2.54,2.54,0,0,1,1.76,1,1.6,1.6,0,0,1,.11,1.84,1.85,1.85,0,0,1-2,.51,6,6,0,0,1-2-1.18,1.74,1.74,0,0,1-.44-.46.53.53,0,0,1,0-.58" style="fill: rgb(114, 74, 68); transform-origin: 102.617px 160.717px 0px;" id="el2wc95hb5f93" class="animable"></path><path d="M104.29,157.32c-.25,0-.26,1.67-1.7,2.86s-3.23,1-3.25,1.24.4.33,1.16.35a4.17,4.17,0,0,0,2.71-.94,3.64,3.64,0,0,0,1.32-2.39C104.6,157.73,104.41,157.31,104.29,157.32Z" style="fill: rgb(38, 50, 56); transform-origin: 101.942px 159.545px 0px;" id="el1m2n9a8bkw4" class="animable"></path><path d="M105,140.21c.15.42,1.7.23,3.52.45s3.29.72,3.53.34c.11-.18-.14-.57-.74-1a6.12,6.12,0,0,0-5.37-.61C105.28,139.68,105,140,105,140.21Z" style="fill: rgb(38, 50, 56); transform-origin: 108.538px 140.085px 0px;" id="elwiac8wfksy9" class="animable"></path><path d="M90.72,139.94c.27.35,1.34,0,2.63,0s2.37.24,2.62-.13c.11-.18-.06-.53-.53-.86a3.77,3.77,0,0,0-4.23.12C90.75,139.41,90.6,139.77,90.72,139.94Z" style="fill: rgb(38, 50, 56); transform-origin: 93.3414px 139.227px 0px;" id="elougplulbdb" class="animable"></path><path d="M91.22,129.39a4.92,4.92,0,0,1,4.36-2.79,9.48,9.48,0,0,1,5.19,1.51c6.69,3.87,10.45,11.55,17.06,15.55a26.83,26.83,0,0,1,4.81,3.05c1.38,1.3,2.28,3.39,1.51,5.13a15.89,15.89,0,0,0,2.3-3.88,5.3,5.3,0,0,0-.19-4.38c-.57-1-1.58-1.75-1.86-2.86s.14-2,.1-3a6.43,6.43,0,0,0-1-2.86,29.14,29.14,0,0,0-10.74-11.31,19.13,19.13,0,0,0-9.86-2.55,14.56,14.56,0,0,0-9.39,3.73c-1.47,1.38-3,2.8-2.26,4.67" style="fill: rgb(38, 50, 56); transform-origin: 108.946px 136.419px 0px;" id="elqw97y6ga78i" class="animable"></path><path d="M124.07,151.87s.13-.15.35-.46a4.9,4.9,0,0,0,.72-1.46,8.35,8.35,0,0,0-.62-5.89c-.5-1.17-1.22-2.38-2-3.71a42.74,42.74,0,0,1-2.06-4.39,31.4,31.4,0,0,0-2.36-4.76,18.5,18.5,0,0,0-3.72-4.28,19.7,19.7,0,0,0-9.86-4.54,14.54,14.54,0,0,0-8.75,1.18,9.48,9.48,0,0,0-4.21,4.2A8.51,8.51,0,0,0,91,129.3a2.75,2.75,0,0,1-.15.56.72.72,0,0,1,0-.14,4.07,4.07,0,0,1,.07-.43,7.3,7.3,0,0,1,.54-1.57,9.52,9.52,0,0,1,4.22-4.33,14.56,14.56,0,0,1,8.88-1.26,19.87,19.87,0,0,1,10,4.58,18.61,18.61,0,0,1,3.77,4.35,30.5,30.5,0,0,1,2.36,4.81,43.5,43.5,0,0,0,2,4.37c.72,1.33,1.43,2.55,1.93,3.75a8.31,8.31,0,0,1,.54,6,4.74,4.74,0,0,1-.78,1.47A3.87,3.87,0,0,1,124.07,151.87Z" style="fill: rgb(69, 90, 100); transform-origin: 108.166px 136.892px 0px;" id="elu2iuy5hmpad" class="animable"></path><path d="M129.25,146a1.3,1.3,0,0,1,0-.32c0-.24,0-.54,0-.92,0-.79.06-1.94,0-3.36a28.08,28.08,0,0,0-.55-4.94,13.08,13.08,0,0,0-2.4-5.51,30.58,30.58,0,0,0-4.31-4.29c-1.43-1.23-2.75-2.28-3.9-3.11s-2.13-1.45-2.81-1.85l-.8-.46a1.34,1.34,0,0,1-.27-.17,1,1,0,0,1,.3.12c.19.09.47.23.82.42a27.69,27.69,0,0,1,2.87,1.78c1.17.81,2.52,1.85,3.95,3.07a30.08,30.08,0,0,1,4.37,4.32,13.21,13.21,0,0,1,2.43,5.62,26.51,26.51,0,0,1,.49,5c0,1.43,0,2.58-.11,3.38,0,.4-.06.7-.08.91A1.43,1.43,0,0,1,129.25,146Z" style="fill: rgb(69, 90, 100); transform-origin: 121.825px 133.535px 0px;" id="elahkwol4e6bg" class="animable"></path><path d="M124.32,118.83a4.73,4.73,0,0,1,.31,1.27,15.11,15.11,0,0,1,.15,3.17,14.62,14.62,0,0,1-.53,3.12,4.61,4.61,0,0,1-.46,1.23,33.37,33.37,0,0,0,.71-4.37A32.15,32.15,0,0,0,124.32,118.83Z" style="fill: rgb(69, 90, 100); transform-origin: 124.298px 123.225px 0px;" id="elcparq62ijm" class="animable"></path><path d="M132.22,127.15a2.23,2.23,0,0,1-.38.94,5.89,5.89,0,0,1-1.63,1.81,6,6,0,0,1-2.22,1,2.38,2.38,0,0,1-1,.09,7.12,7.12,0,0,1,1-.28,7,7,0,0,0,3.74-2.74A9.2,9.2,0,0,1,132.22,127.15Z" style="fill: rgb(69, 90, 100); transform-origin: 129.605px 129.079px 0px;" id="elzgzkt1qy098" class="animable"></path><path d="M132.78,134.71a4.72,4.72,0,0,1-2.24.4,4.63,4.63,0,0,1-2.21-.53c0-.09,1,.21,2.22.26S132.76,134.62,132.78,134.71Z" style="fill: rgb(69, 90, 100); transform-origin: 130.555px 134.842px 0px;" id="el8hulhke9nl2" class="animable"></path><path d="M127.89,154.35c-.26-.14-.13-.88-.1-2.09a5.7,5.7,0,0,0-.23-2,3.1,3.1,0,0,0-.21-.45,1.37,1.37,0,0,0-.13-.2l-.18-.26a9.47,9.47,0,0,0-.93-1.08,2.74,2.74,0,0,0-1-.68c-.12,0-.15,0-.1,0l-.39.08-.42.1a7.38,7.38,0,0,0-1.6.6c-.27.14-.53.29-.81.46l-.2.14-.35.2a6.59,6.59,0,0,1-.71.34,7.26,7.26,0,0,1-3.16.53,5.29,5.29,0,0,1-1.9-.47l-.24-.13-.19-.11a3.52,3.52,0,0,1-.38-.24,6.6,6.6,0,0,1-.7-.56,9.11,9.11,0,0,1-1.93-2.63c-.45-.89-.79-1.76-1.12-2.55a29.67,29.67,0,0,0-4.83-7.93,32.42,32.42,0,0,0-5.63-5.22,17.84,17.84,0,0,0-4.43-2.54c-1.12-.42-1.85-.53-1.9-.83s.67-.73,2.14-.77a12.49,12.49,0,0,1,5.71,1.63,26.47,26.47,0,0,1,6.94,5.16,28.11,28.11,0,0,1,5.83,8.92c.35.85.65,1.62,1,2.27a5.88,5.88,0,0,0,1,1.52,2.91,2.91,0,0,0,.27.24.67.67,0,0,0,.14.09l.07,0,0,0a1.25,1.25,0,0,0,.46.14,3.66,3.66,0,0,0,1.48-.16l.33-.13.15-.07.28-.15a11.56,11.56,0,0,1,1.18-.55,10.64,10.64,0,0,1,2.44-.65l.58-.07.28,0,.32,0a3.26,3.26,0,0,1,1.78.43,5.64,5.64,0,0,1,1.8,1.66,10.26,10.26,0,0,1,1,1.65c.06.14.12.25.18.42a2.84,2.84,0,0,1,.17.49,4,4,0,0,1,.17.92,6,6,0,0,1-.47,2.74C128.78,154,128.13,154.47,127.89,154.35Z" style="fill: rgb(38, 50, 56); transform-origin: 111.975px 140.214px 0px;" id="el98lsyeqvgpq" class="animable"></path><path d="M122.48,148.1c.11-.32,6-2.44,6,3.79.08,6.06-6,4.87-6,4.69S122.48,148.1,122.48,148.1Z" style="fill: rgb(157, 96, 84); transform-origin: 125.48px 152.144px 0px;" id="el42dglx2asqn" class="animable"></path><path d="M124.34,154.27s.1.07.28.15a1.06,1.06,0,0,0,.79,0,2.6,2.6,0,0,0,1.19-2.35,3.67,3.67,0,0,0-.31-1.51,1.24,1.24,0,0,0-.8-.8.53.53,0,0,0-.62.3c-.08.17,0,.29-.08.3s-.13-.1-.08-.35a.63.63,0,0,1,.23-.38.78.78,0,0,1,.59-.16,1.48,1.48,0,0,1,1.11.92,3.69,3.69,0,0,1,.38,1.69,2.74,2.74,0,0,1-1.52,2.63,1.14,1.14,0,0,1-1-.15C124.35,154.42,124.32,154.28,124.34,154.27Z" style="fill: rgb(114, 74, 68); transform-origin: 125.68px 152.114px 0px;" id="el81qvzr2zogn" class="animable"></path><path d="M127.14,148a3.18,3.18,0,0,0-.25-.41,2.36,2.36,0,0,0-1.09-.8,4.37,4.37,0,0,0-2.14-.19,9.9,9.9,0,0,0-2.72,1,7.18,7.18,0,0,1-3.44.87,5.54,5.54,0,0,1-3.58-1.91,11.27,11.27,0,0,1-2.14-4c-.51-1.48-1-3-1.57-4.55a23.37,23.37,0,0,0-4.77-7.87,13.4,13.4,0,0,0-6.4-3.78,11.47,11.47,0,0,0-2.87-.37,10.47,10.47,0,0,0-2.17.26c-1.17.29-1.76.62-1.78.58l.11-.06.33-.15a6.88,6.88,0,0,1,1.31-.47,9.22,9.22,0,0,1,2.2-.31,11.19,11.19,0,0,1,2.91.33,13.46,13.46,0,0,1,6.55,3.79,23.41,23.41,0,0,1,4.84,8c.61,1.53,1.07,3.09,1.56,4.56a11.26,11.26,0,0,0,2.08,3.89,5.33,5.33,0,0,0,3.41,1.85,7.07,7.07,0,0,0,3.35-.82,9.91,9.91,0,0,1,2.77-.95,4.33,4.33,0,0,1,2.2.24,2.26,2.26,0,0,1,1.09.87,1.27,1.27,0,0,1,.17.32C127.14,148,127.15,148,127.14,148Z" style="fill: rgb(69, 90, 100); transform-origin: 109.682px 137.154px 0px;" id="elv5sk58lqu68" class="animable"></path><path d="M124.88,145a2.19,2.19,0,0,1-.36-.2c-.23-.15-.59-.35-1-.65a20.75,20.75,0,0,1-3.26-3,60,60,0,0,1-4-5.19,47.87,47.87,0,0,0-5-6.22,18.75,18.75,0,0,0-3.23-2.55,15.61,15.61,0,0,0-3.48-1.58,17.17,17.17,0,0,0-6.41-.79,16.9,16.9,0,0,0-4.3.84c-.49.15-.86.32-1.12.42a2.28,2.28,0,0,1-.39.14,1.46,1.46,0,0,1,.37-.19,9.2,9.2,0,0,1,1.11-.47,15.4,15.4,0,0,1,4.31-.93,17,17,0,0,1,6.51.74,15.19,15.19,0,0,1,3.54,1.59,18.88,18.88,0,0,1,3.28,2.58,46.45,46.45,0,0,1,5,6.27,63.22,63.22,0,0,0,3.93,5.21,22.07,22.07,0,0,0,3.19,3c.41.32.76.53,1,.69A2.23,2.23,0,0,1,124.88,145Z" style="fill: rgb(69, 90, 100); transform-origin: 108.605px 134.787px 0px;" id="elygtxtvw5fj" class="animable"></path><path d="M125,155.34a1.19,1.19,0,1,1-.28.09" style="fill: rgb(255, 255, 255); transform-origin: 125.221px 156.509px 0px;" id="eliyjsyss81of" class="animable"></path><path d="M124.74,155.43a1.71,1.71,0,0,0-.54.81,1,1,0,0,0,.23.95,1.14,1.14,0,0,0,1.13.33,1.16,1.16,0,0,0,.74-.92,1.05,1.05,0,0,0-.36-.91,1.6,1.6,0,0,0-.92-.35.53.53,0,0,1,.29-.07,1.27,1.27,0,0,1,.75.27,1.22,1.22,0,0,1,.49,1.09,1.3,1.3,0,0,1-2.31.73,1.22,1.22,0,0,1-.23-1.17,1.27,1.27,0,0,1,.46-.65C124.63,155.43,124.74,155.42,124.74,155.43Z" style="fill: rgb(38, 50, 56); transform-origin: 125.252px 156.557px 0px;" id="el7wr3732g9tp" class="animable"></path></g><g id="freepik--Plant--inject-229" style="transform-origin: 423.906px 378.626px 0px;" class="animable"><path d="M450.72,393.56c.89-3.08,2.79-6.05,5.73-7.31s6.59-.57,9.72.56,6.2,2.66,9.52,2.87,7.07-1.37,8.07-4.55c.93-3-.87-6.17-3.12-8.34a19.68,19.68,0,0,0-32.25,7.74" style="fill: rgb(38, 50, 56); transform-origin: 466.2px 382.422px 0px;" id="elsmjq41jkgt9" class="animable"></path><path d="M424.4,406.9c-4.87-4.63-4.63-12.69-2.2-18.95s7.74-11.09,13.67-14.26a43.26,43.26,0,0,1,37.71-1.22,17.88,17.88,0,0,0-14.47,8.5c-2.67,4.44-3.27,9.82-5.47,14.5A22.83,22.83,0,0,1,424.4,406.9" style="fill: rgb(69, 90, 100); transform-origin: 447.046px 388.655px 0px;" id="elwpmaaaa4oyg" class="animable"></path><path d="M422.06,379.09c-5.4-6.37-6.12-16.6-5.32-24.91s2.72-16.67,1.41-24.92c-.78-4.88-2.67-9.55-3.31-14.45s.26-10.45,4.06-13.62c4.37-3.64,11.25-2.78,15.79.64s7.18,8.78,9.1,14.13c4.23,11.75,5.78,24.79,2.31,36.78s-11.62,22.72-23.57,26.35" style="fill: rgb(69, 90, 100); transform-origin: 431.33px 338.961px 0px;" id="elae6wp18r9fb" class="animable"></path><path d="M419.47,431.35a3.48,3.48,0,0,1,0-.74c0-.48,0-1.19,0-2.1.07-1.83.24-4.47.64-7.72a103,103,0,0,1,2.07-11.3,51.54,51.54,0,0,1,5.16-13.09,54.41,54.41,0,0,1,8.43-11.27,53.4,53.4,0,0,1,8.84-7.34c1.35-.93,2.66-1.64,3.78-2.29s2.16-1.1,3-1.5l1.95-.81A2.87,2.87,0,0,1,454,373a6.22,6.22,0,0,1-.65.34l-1.9.9c-.81.42-1.8.94-2.93,1.56s-2.39,1.4-3.71,2.34a55.43,55.43,0,0,0-17,18.56c-5,8.68-6.32,17.79-7.31,24.19-.45,3.23-.68,5.86-.81,7.68-.05.87-.09,1.57-.13,2.1A5.26,5.26,0,0,1,419.47,431.35Z" style="fill: rgb(38, 50, 56); transform-origin: 436.725px 402.175px 0px;" id="elzygp5j9rhp" class="animable"></path><path d="M372.92,354c-10,6-9.95,11.5-8.28,16.68s7.79,8.77,12.87,6.83c2.87-1.09,4.95-3.59,6.73-6.1s3.45-5.19,5.94-7,6.1-2.49,8.6-.71" style="fill: rgb(38, 50, 56); transform-origin: 381.291px 366.022px 0px;" id="el2zoneflrpw7" class="animable"></path><path d="M365.45,360.56c2.61-3.61,9.06-4.65,13.13-2.85s7.05,5.37,9.72,8.93,5.27,7.33,9,9.81,8.87,3.37,12.55.88a10.79,10.79,0,0,0,4.27-7.39,24.57,24.57,0,0,0-.59-8.7c-.88-4.19-2.32-8.56-5.67-11.22-3.73-3-8.92-3.11-13.68-2.95-5.47.18-11,.59-16.15,2.48s-10.37,6-12.55,11" style="fill: rgb(69, 90, 100); transform-origin: 389.86px 362.918px 0px;" id="el35rqxlhs9tp" class="animable"></path><path d="M411.17,423.35a5.18,5.18,0,0,1-.07-.86c0-.61-.05-1.44-.09-2.48-.07-2.2-.16-5.3-.28-9.11s-.28-8.43-.56-13.51-.66-10.66-1.43-16.47a53.09,53.09,0,0,0-1.66-8.36,42.61,42.61,0,0,0-3.05-7.31A39.63,39.63,0,0,0,396,354.56a31.31,31.31,0,0,0-7.46-5.1,23,23,0,0,0-2.27-1,5.09,5.09,0,0,1-.8-.35,6.59,6.59,0,0,1,.83.25,17.58,17.58,0,0,1,2.32.9,29.61,29.61,0,0,1,7.62,5A39.31,39.31,0,0,1,404.45,365a42.94,42.94,0,0,1,3.12,7.39,51.89,51.89,0,0,1,1.68,8.44c.78,5.84,1.14,11.43,1.4,16.52s.37,9.67.45,13.52.1,7,.11,9.12v2.48A5.25,5.25,0,0,1,411.17,423.35Z" style="fill: rgb(38, 50, 56); transform-origin: 398.342px 385.73px 0px;" id="elzl3n9dukfi" class="animable"></path><path d="M414.76,427.86a27.79,27.79,0,0,1-1.11-4.28,45.1,45.1,0,0,1-.47-12.05A80.62,80.62,0,0,1,417,394c2-6.42,4.83-13.29,7.21-20.67A90.74,90.74,0,0,0,428.47,352a153.4,153.4,0,0,0,.33-17.85c-.17-5.08-.44-9.19-.6-12-.08-1.39-.14-2.48-.19-3.27,0-.35,0-.63,0-.85a1.29,1.29,0,0,1,0-.29.9.9,0,0,1,0,.29l.09.84c.06.79.16,1.88.28,3.27.23,2.84.55,6.95.76,12A145.62,145.62,0,0,1,429,352a95,95,0,0,1-1.4,10.49,93.35,93.35,0,0,1-2.87,11c-2.38,7.41-5.18,14.27-7.24,20.67a81.71,81.71,0,0,0-3.89,17.37,46.82,46.82,0,0,0,.3,12c.25,1.4.47,2.48.66,3.21l.2.83A1.17,1.17,0,0,1,414.76,427.86Z" style="fill: rgb(38, 50, 56); transform-origin: 421.162px 372.8px 0px;" id="elr1kfofjzq4i" class="animable"></path><polygon points="439.51 432.38 392.63 432.38 391.56 423.35 439.51 423.35 439.51 432.38" style="fill: rgb(38, 50, 56); transform-origin: 415.535px 427.865px 0px;" id="el304xro3dc1" class="animable"></polygon><polygon points="397.67 431.35 403.53 458.42 429 458.42 434.48 431.35 397.67 431.35" style="fill: rgb(38, 50, 56); transform-origin: 416.075px 444.885px 0px;" id="el9panmv5b3jh" class="animable"></polygon><path d="M439.51,432.38c0,.14-10.3.23-23,.19s-23-.18-23-.32,10.3-.23,23-.2S439.51,432.23,439.51,432.38Z" style="fill: rgb(69, 90, 100); transform-origin: 416.51px 432.312px 0px;" id="elpc5agwwdp6o" class="animable"></path><path d="M431.47,445.74a20.55,20.55,0,0,0-4.14-2.35,14.75,14.75,0,0,0-5-1,17.67,17.67,0,0,0-6.16,1.13c-2.14.72-4.13,1.56-6.08,2a14.58,14.58,0,0,1-5.26.16,10.85,10.85,0,0,1-3.38-1.09,6.13,6.13,0,0,1-.81-.52c-.18-.13-.26-.21-.25-.23a12.17,12.17,0,0,0,4.49,1.47,14.82,14.82,0,0,0,5.1-.25c1.87-.47,3.87-1.32,6-2a17.59,17.59,0,0,1,6.34-1.12,14.45,14.45,0,0,1,5.14,1.13,13.25,13.25,0,0,1,3,1.8,8.57,8.57,0,0,1,.73.63C431.4,445.64,431.48,445.72,431.47,445.74Z" style="fill: rgb(69, 90, 100); transform-origin: 415.93px 443.893px 0px;" id="elo8iw2dcx0vr" class="animable"></path><path d="M431.11,447.54a22.72,22.72,0,0,0-4-2.31,13.57,13.57,0,0,0-4.84-1,17.4,17.4,0,0,0-5.95,1.07c-2.07.69-4,1.49-5.86,2a15.11,15.11,0,0,1-5.06.56,8.54,8.54,0,0,1-3.31-.9,6.12,6.12,0,0,1-.79-.51c-.16-.13-.25-.2-.24-.22s.4.22,1.12.55a9.26,9.26,0,0,0,3.25.71,15.57,15.57,0,0,0,4.9-.65c1.81-.52,3.73-1.32,5.82-2a17.27,17.27,0,0,1,6.14-1.06,13.29,13.29,0,0,1,5,1.12,12.71,12.71,0,0,1,2.92,1.79,6.29,6.29,0,0,1,.7.62Q431.13,447.53,431.11,447.54Z" style="fill: rgb(255, 255, 255); transform-origin: 416.085px 445.833px 0px;" id="elrci5jsucho9" class="animable"></path><path d="M431.93,443.94a23.13,23.13,0,0,0-4.25-2.47,15.65,15.65,0,0,0-5.14-1.23,16.6,16.6,0,0,0-6.35,1.12,58.27,58.27,0,0,1-6.3,2.06,16.15,16.15,0,0,1-5.43,0A12.08,12.08,0,0,1,401,442.3a6.37,6.37,0,0,1-.84-.53c-.18-.14-.27-.22-.26-.23s.42.23,1.19.58a13.49,13.49,0,0,0,3.46.93,16.31,16.31,0,0,0,5.28-.1,63.89,63.89,0,0,0,6.22-2.08,16.64,16.64,0,0,1,6.55-1.11A15.7,15.7,0,0,1,431,443a8.54,8.54,0,0,1,.74.65C431.86,443.84,431.94,443.93,431.93,443.94Z" style="fill: rgb(255, 255, 255); transform-origin: 415.915px 441.845px 0px;" id="el9959lv85q2m" class="animable"></path></g><defs>     <filter id="active" height="200%">         <feMorphology in="SourceAlpha" result="DILATED" operator="dilate" radius="2"></feMorphology>                <feFlood flood-color="#32DFEC" flood-opacity="1" result="PINK"></feFlood>        <feComposite in="PINK" in2="DILATED" operator="in" result="OUTLINE"></feComposite>        <feMerge>            <feMergeNode in="OUTLINE"></feMergeNode>            <feMergeNode in="SourceGraphic"></feMergeNode>        </feMerge>    </filter>    <filter id="hover" height="200%">        <feMorphology in="SourceAlpha" result="DILATED" operator="dilate" radius="2"></feMorphology>                <feFlood flood-color="#ff0000" flood-opacity="0.5" result="PINK"></feFlood>        <feComposite in="PINK" in2="DILATED" operator="in" result="OUTLINE"></feComposite>        <feMerge>            <feMergeNode in="OUTLINE"></feMergeNode>            <feMergeNode in="SourceGraphic"></feMergeNode>        </feMerge>            <feColorMatrix type="matrix" values="0   0   0   0   0                0   1   0   0   0                0   0   0   0   0                0   0   0   1   0 "></feColorMatrix>    </filter></defs></svg>